%TF.GenerationSoftware,KiCad,Pcbnew,7.0.1*%
%TF.CreationDate,2024-10-02T18:24:02+09:00*%
%TF.ProjectId,#F-25 AC Circuit Rev01,23462d32-3520-4414-9320-436972637569,rev?*%
%TF.SameCoordinates,Original*%
%TF.FileFunction,Soldermask,Bot*%
%TF.FilePolarity,Negative*%
%FSLAX46Y46*%
G04 Gerber Fmt 4.6, Leading zero omitted, Abs format (unit mm)*
G04 Created by KiCad (PCBNEW 7.0.1) date 2024-10-02 18:24:02*
%MOMM*%
%LPD*%
G01*
G04 APERTURE LIST*
%ADD10R,1.600000X1.600000*%
%ADD11O,1.600000X1.600000*%
%ADD12R,1.200000X1.200000*%
%ADD13C,1.200000*%
%ADD14C,1.500000*%
%ADD15C,5.250000*%
%ADD16C,1.560000*%
%ADD17R,1.950000X1.950000*%
%ADD18C,1.950000*%
%ADD19C,4.650000*%
G04 APERTURE END LIST*
D10*
%TO.C,U8*%
X156006800Y-65278000D03*
D11*
X153466800Y-65278000D03*
X150926800Y-65278000D03*
X148386800Y-65278000D03*
X148386800Y-72898000D03*
X150926800Y-72898000D03*
X153466800Y-72898000D03*
X156006800Y-72898000D03*
%TD*%
D12*
%TO.C,U10*%
X156006800Y-57658000D03*
D13*
X156006800Y-55118000D03*
X148386800Y-55118000D03*
X148386800Y-57658000D03*
%TD*%
D14*
%TO.C,J2*%
X147230000Y-33100000D03*
X144730000Y-33100000D03*
X142230000Y-33100000D03*
X139730000Y-33100000D03*
X137230000Y-33100000D03*
X134730000Y-33100000D03*
X147230000Y-30100000D03*
X144730000Y-30100000D03*
X142230000Y-30100000D03*
X139730000Y-30100000D03*
X137230000Y-30100000D03*
X134730000Y-30100000D03*
X128730000Y-33100000D03*
X126230000Y-33100000D03*
X123730000Y-33100000D03*
X121230000Y-33100000D03*
X118730000Y-33100000D03*
X116230000Y-33100000D03*
X113730000Y-33100000D03*
X111230000Y-33100000D03*
X128730000Y-30100000D03*
X126230000Y-30100000D03*
X123730000Y-30100000D03*
X121230000Y-30100000D03*
X118730000Y-30100000D03*
X116230000Y-30100000D03*
X113730000Y-30100000D03*
X111230000Y-30100000D03*
D15*
X152780000Y-25400000D03*
X105680000Y-25400000D03*
%TD*%
D16*
%TO.C,K4*%
X101520000Y-70320000D03*
X83740000Y-75400000D03*
X58340000Y-75400000D03*
X40560000Y-70320000D03*
%TD*%
D13*
%TO.C,U1*%
X94426800Y-24612600D03*
X94426800Y-27152600D03*
X94426800Y-34772600D03*
X94426800Y-39852600D03*
%TD*%
D12*
%TO.C,U4*%
X101981000Y-55600600D03*
D13*
X101981000Y-58140600D03*
X109601000Y-58140600D03*
X109601000Y-55600600D03*
%TD*%
D17*
%TO.C,J1*%
X45670000Y-34500000D03*
D18*
X45670000Y-40100000D03*
X50670000Y-34500000D03*
X50670000Y-40100000D03*
X55670000Y-34500000D03*
X55670000Y-40100000D03*
X60670000Y-34500000D03*
X60670000Y-40100000D03*
X65670000Y-34500000D03*
X65670000Y-40100000D03*
X70670000Y-34500000D03*
X70670000Y-40100000D03*
X75670000Y-34500000D03*
X75670000Y-40100000D03*
D19*
X38020000Y-25400000D03*
X83320000Y-25400000D03*
%TD*%
D12*
%TO.C,U3*%
X101981000Y-44780200D03*
D13*
X101981000Y-47320200D03*
X109601000Y-47320200D03*
X109601000Y-44780200D03*
%TD*%
D12*
%TO.C,C7*%
X50670000Y-57570000D03*
D13*
X50670000Y-54070000D03*
%TD*%
M02*
