M48
; DRILL file {KiCad 7.0.1} date Wed Oct  2 18:23:55 2024
; FORMAT={-:-/ absolute / inch / decimal}
; #@! TF.CreationDate,2024-10-02T18:23:55+09:00
; #@! TF.GenerationSoftware,Kicad,Pcbnew,7.0.1
; #@! TF.FileFunction,Plated,1,2,PTH
FMAT,2
INCH
; #@! TA.AperFunction,Plated,PTH,ViaDrill
T1C0.0157
; #@! TA.AperFunction,Plated,PTH,ComponentDrill
T2C0.0295
; #@! TA.AperFunction,Plated,PTH,ComponentDrill
T3C0.0315
; #@! TA.AperFunction,Plated,PTH,ComponentDrill
T4C0.0394
; #@! TA.AperFunction,Plated,PTH,ComponentDrill
T5C0.0409
; #@! TA.AperFunction,Plated,PTH,ComponentDrill
T6C0.0512
; #@! TA.AperFunction,Plated,PTH,ComponentDrill
T7C0.1220
; #@! TA.AperFunction,Plated,PTH,ComponentDrill
T8C0.1378
%
G90
G05
T1
X3.4144Y-2.021
X3.558Y-2.134
X3.7668Y-1.7972
X3.911Y-2.144
X4.0154Y-1.999
X4.434Y-2.859
X4.4466Y-2.3506
X4.491Y-1.658
X4.518Y-2.13
X4.633Y-2.7044
X4.701Y-1.659
X4.711Y-2.393
X4.733Y-2.7044
X4.827Y-2.7044
X4.915Y-1.66
X4.927Y-2.7044
X5.0105Y-2.7735
X5.033Y-2.46
X5.0394Y-2.543
X5.112Y-2.343
X5.1768Y-2.176
X5.3016Y-2.593
X5.326Y-2.343
X5.3301Y-1.014
X5.4704Y-1.019
X5.842Y-2.77
X6.07Y-2.651
X6.209Y-1.523
T2
X3.7176Y-0.969
X3.7176Y-1.069
X3.7176Y-1.369
X3.7176Y-1.569
T3
X1.9949Y-2.1287
X1.9949Y-2.2665
X4.015Y-1.763
X4.015Y-1.863
X4.015Y-2.189
X4.015Y-2.289
X4.315Y-1.763
X4.315Y-1.863
X4.315Y-2.189
X4.315Y-2.289
X5.842Y-2.17
X5.842Y-2.27
X5.842Y-2.57
X5.842Y-2.87
X5.942Y-2.57
X5.942Y-2.87
X6.042Y-2.57
X6.042Y-2.87
X6.142Y-2.17
X6.142Y-2.27
X6.142Y-2.57
X6.142Y-2.87
T4
X4.3791Y-1.185
X4.3791Y-1.3031
X4.4776Y-1.185
X4.4776Y-1.3031
X4.576Y-1.185
X4.576Y-1.3031
X4.6744Y-1.185
X4.6744Y-1.3031
X4.7728Y-1.185
X4.7728Y-1.3031
X4.8713Y-1.185
X4.8713Y-1.3031
X4.9697Y-1.185
X4.9697Y-1.3031
X5.0681Y-1.185
X5.0681Y-1.3031
X5.3043Y-1.185
X5.3043Y-1.3031
X5.4028Y-1.185
X5.4028Y-1.3031
X5.5012Y-1.185
X5.5012Y-1.3031
X5.5996Y-1.185
X5.5996Y-1.3031
X5.698Y-1.185
X5.698Y-1.3031
X5.7965Y-1.185
X5.7965Y-1.3031
T5
X1.5969Y-2.7685
X2.2969Y-2.9685
X3.2969Y-2.9685
X3.9969Y-2.7685
T6
X1.798Y-1.3583
X1.798Y-1.5787
X1.9949Y-1.3583
X1.9949Y-1.5787
X2.1917Y-1.3583
X2.1917Y-1.5787
X2.3886Y-1.3583
X2.3886Y-1.5787
X2.5854Y-1.3583
X2.5854Y-1.5787
X2.7823Y-1.3583
X2.7823Y-1.5787
X2.9791Y-1.3583
X2.9791Y-1.5787
T7
X1.4969Y-1.0
X3.2803Y-1.0
T8
X4.1606Y-1.0
X6.015Y-1.0
T0
M30
