%TF.GenerationSoftware,KiCad,Pcbnew,7.0.1*%
%TF.CreationDate,2024-10-02T18:23:54+09:00*%
%TF.ProjectId,#F-25 AC Circuit Rev01,23462d32-3520-4414-9320-436972637569,rev?*%
%TF.SameCoordinates,Original*%
%TF.FileFunction,Drillmap*%
%TF.FilePolarity,Positive*%
%FSLAX45Y45*%
G04 Gerber Fmt 4.5, Leading zero omitted, Abs format (unit mm)*
G04 Created by KiCad (PCBNEW 7.0.1) date 2024-10-02 18:23:54*
%MOMM*%
%LPD*%
G01*
G04 APERTURE LIST*
%ADD10C,0.100000*%
%ADD11C,0.200000*%
%ADD12C,0.040000*%
%ADD13C,0.075000*%
%ADD14C,0.080000*%
%ADD15C,0.104000*%
%ADD16C,0.130000*%
%ADD17C,0.310000*%
%ADD18C,0.350000*%
G04 APERTURE END LIST*
D10*
X16540000Y-2540000D02*
G75*
G03*
X16040000Y-2040000I-500000J0D01*
G01*
X16040000Y-8040000D02*
G75*
G03*
X16540000Y-7540000I0J500000D01*
G01*
X16540000Y-2540000D02*
X16540000Y-7540000D01*
X16040000Y-8040000D02*
X3040000Y-8040000D01*
X3040000Y-2040000D02*
G75*
G03*
X2540000Y-2540000I0J-500000D01*
G01*
X2540000Y-7540000D02*
G75*
G03*
X3040000Y-8040000I500000J0D01*
G01*
X16250000Y-2540000D02*
G75*
G03*
X16250000Y-2540000I-210000J0D01*
G01*
X3250000Y-2540000D02*
G75*
G03*
X3250000Y-2540000I-210000J0D01*
G01*
X3250000Y-7540000D02*
G75*
G03*
X3250000Y-7540000I-210000J0D01*
G01*
X3040000Y-2040000D02*
X16040000Y-2040000D01*
X2540000Y-2540000D02*
X2540000Y-7540000D01*
X16250000Y-7540000D02*
G75*
G03*
X16250000Y-7540000I-210000J0D01*
G01*
D11*
D12*
X8652695Y-5113340D02*
X8692695Y-5153340D01*
X8692695Y-5113340D02*
X8652695Y-5153340D01*
X9017320Y-5400360D02*
X9057320Y-5440360D01*
X9057320Y-5400360D02*
X9017320Y-5440360D01*
X9547690Y-4544870D02*
X9587690Y-4584870D01*
X9587690Y-4544870D02*
X9547690Y-4584870D01*
X9913940Y-5425760D02*
X9953940Y-5465760D01*
X9953940Y-5425760D02*
X9913940Y-5465760D01*
X10179219Y-5057460D02*
X10219219Y-5097460D01*
X10219219Y-5057460D02*
X10179219Y-5097460D01*
X11242360Y-7241860D02*
X11282360Y-7281860D01*
X11282360Y-7241860D02*
X11242360Y-7281860D01*
X11274320Y-5950480D02*
X11314320Y-5990480D01*
X11314320Y-5950480D02*
X11274320Y-5990480D01*
X11387140Y-4191320D02*
X11427140Y-4231320D01*
X11427140Y-4191320D02*
X11387140Y-4231320D01*
X11455720Y-5390200D02*
X11495720Y-5430200D01*
X11495720Y-5390200D02*
X11455720Y-5430200D01*
X11747820Y-6849220D02*
X11787820Y-6889220D01*
X11787820Y-6849220D02*
X11747820Y-6889220D01*
X11920540Y-4193860D02*
X11960540Y-4233860D01*
X11960540Y-4193860D02*
X11920540Y-4233860D01*
X11945940Y-6058220D02*
X11985940Y-6098220D01*
X11985940Y-6058220D02*
X11945940Y-6098220D01*
X12001820Y-6849220D02*
X12041820Y-6889220D01*
X12041820Y-6849220D02*
X12001820Y-6889220D01*
X12240580Y-6849220D02*
X12280580Y-6889220D01*
X12280580Y-6849220D02*
X12240580Y-6889220D01*
X12464100Y-4196320D02*
X12504100Y-4236320D01*
X12504100Y-4196320D02*
X12464100Y-4236320D01*
X12494580Y-6849220D02*
X12534580Y-6889220D01*
X12534580Y-6849220D02*
X12494580Y-6889220D01*
X12706705Y-7024725D02*
X12746705Y-7064725D01*
X12746705Y-7024725D02*
X12706705Y-7064725D01*
X12763820Y-6228400D02*
X12803820Y-6268400D01*
X12803820Y-6228400D02*
X12763820Y-6268400D01*
X12780080Y-6439220D02*
X12820080Y-6479220D01*
X12820080Y-6439220D02*
X12780080Y-6479220D01*
X12964480Y-5931220D02*
X13004480Y-5971220D01*
X13004480Y-5931220D02*
X12964480Y-5971220D01*
X13129080Y-5507040D02*
X13169080Y-5547040D01*
X13169080Y-5507040D02*
X13129080Y-5547040D01*
X13446080Y-6566220D02*
X13486080Y-6606220D01*
X13486080Y-6566220D02*
X13446080Y-6606220D01*
X13508040Y-5931220D02*
X13548040Y-5971220D01*
X13548040Y-5931220D02*
X13508040Y-5971220D01*
X13518560Y-2555560D02*
X13558560Y-2595560D01*
X13558560Y-2555560D02*
X13518560Y-2595560D01*
X13874740Y-2568260D02*
X13914740Y-2608260D01*
X13914740Y-2568260D02*
X13874740Y-2608260D01*
X14818680Y-7015800D02*
X14858680Y-7055800D01*
X14858680Y-7015800D02*
X14818680Y-7055800D01*
X15397800Y-6713540D02*
X15437800Y-6753540D01*
X15437800Y-6713540D02*
X15397800Y-6753540D01*
X15750860Y-3848420D02*
X15790860Y-3888420D01*
X15790860Y-3848420D02*
X15750860Y-3888420D01*
D13*
X9480180Y-2461260D02*
G75*
G03*
X9480180Y-2461260I-37500J0D01*
G01*
X9480180Y-2715260D02*
G75*
G03*
X9480180Y-2715260I-37500J0D01*
G01*
X9480180Y-3477260D02*
G75*
G03*
X9480180Y-3477260I-37500J0D01*
G01*
X9480180Y-3985260D02*
G75*
G03*
X9480180Y-3985260I-37500J0D01*
G01*
D14*
X5067000Y-5367000D02*
X5067000Y-5447000D01*
X5027000Y-5407000D02*
X5107000Y-5407000D01*
X5067000Y-5717000D02*
X5067000Y-5797000D01*
X5027000Y-5757000D02*
X5107000Y-5757000D01*
X10198100Y-4438020D02*
X10198100Y-4518020D01*
X10158100Y-4478020D02*
X10238100Y-4478020D01*
X10198100Y-4692020D02*
X10198100Y-4772020D01*
X10158100Y-4732020D02*
X10238100Y-4732020D01*
X10198100Y-5520060D02*
X10198100Y-5600060D01*
X10158100Y-5560060D02*
X10238100Y-5560060D01*
X10198100Y-5774060D02*
X10198100Y-5854060D01*
X10158100Y-5814060D02*
X10238100Y-5814060D01*
X10960100Y-4438020D02*
X10960100Y-4518020D01*
X10920100Y-4478020D02*
X11000100Y-4478020D01*
X10960100Y-4692020D02*
X10960100Y-4772020D01*
X10920100Y-4732020D02*
X11000100Y-4732020D01*
X10960100Y-5520060D02*
X10960100Y-5600060D01*
X10920100Y-5560060D02*
X11000100Y-5560060D01*
X10960100Y-5774060D02*
X10960100Y-5854060D01*
X10920100Y-5814060D02*
X11000100Y-5814060D01*
X14838680Y-5471800D02*
X14838680Y-5551800D01*
X14798680Y-5511800D02*
X14878680Y-5511800D01*
X14838680Y-5725800D02*
X14838680Y-5805800D01*
X14798680Y-5765800D02*
X14878680Y-5765800D01*
X14838680Y-6487800D02*
X14838680Y-6567800D01*
X14798680Y-6527800D02*
X14878680Y-6527800D01*
X14838680Y-7249800D02*
X14838680Y-7329800D01*
X14798680Y-7289800D02*
X14878680Y-7289800D01*
X15092680Y-6487800D02*
X15092680Y-6567800D01*
X15052680Y-6527800D02*
X15132680Y-6527800D01*
X15092680Y-7249800D02*
X15092680Y-7329800D01*
X15052680Y-7289800D02*
X15132680Y-7289800D01*
X15346680Y-6487800D02*
X15346680Y-6567800D01*
X15306680Y-6527800D02*
X15386680Y-6527800D01*
X15346680Y-7249800D02*
X15346680Y-7329800D01*
X15306680Y-7289800D02*
X15386680Y-7289800D01*
X15600680Y-5471800D02*
X15600680Y-5551800D01*
X15560680Y-5511800D02*
X15640680Y-5511800D01*
X15600680Y-5725800D02*
X15600680Y-5805800D01*
X15560680Y-5765800D02*
X15640680Y-5765800D01*
X15600680Y-6487800D02*
X15600680Y-6567800D01*
X15560680Y-6527800D02*
X15640680Y-6527800D01*
X15600680Y-7249800D02*
X15600680Y-7329800D01*
X15560680Y-7289800D02*
X15640680Y-7289800D01*
D10*
X11158356Y-3045356D02*
X11158356Y-2974644D01*
X11087644Y-2974644D01*
X11087644Y-3045356D01*
X11158356Y-3045356D01*
X11158356Y-3345356D02*
X11158356Y-3274644D01*
X11087644Y-3274644D01*
X11087644Y-3345356D01*
X11158356Y-3345356D01*
X11408356Y-3045356D02*
X11408356Y-2974644D01*
X11337644Y-2974644D01*
X11337644Y-3045356D01*
X11408356Y-3045356D01*
X11408356Y-3345356D02*
X11408356Y-3274644D01*
X11337644Y-3274644D01*
X11337644Y-3345356D01*
X11408356Y-3345356D01*
X11658356Y-3045356D02*
X11658356Y-2974644D01*
X11587644Y-2974644D01*
X11587644Y-3045356D01*
X11658356Y-3045356D01*
X11658356Y-3345356D02*
X11658356Y-3274644D01*
X11587644Y-3274644D01*
X11587644Y-3345356D01*
X11658356Y-3345356D01*
X11908356Y-3045356D02*
X11908356Y-2974644D01*
X11837644Y-2974644D01*
X11837644Y-3045356D01*
X11908356Y-3045356D01*
X11908356Y-3345356D02*
X11908356Y-3274644D01*
X11837644Y-3274644D01*
X11837644Y-3345356D01*
X11908356Y-3345356D01*
X12158356Y-3045356D02*
X12158356Y-2974644D01*
X12087644Y-2974644D01*
X12087644Y-3045356D01*
X12158356Y-3045356D01*
X12158356Y-3345356D02*
X12158356Y-3274644D01*
X12087644Y-3274644D01*
X12087644Y-3345356D01*
X12158356Y-3345356D01*
X12408356Y-3045356D02*
X12408356Y-2974644D01*
X12337644Y-2974644D01*
X12337644Y-3045356D01*
X12408356Y-3045356D01*
X12408356Y-3345356D02*
X12408356Y-3274644D01*
X12337644Y-3274644D01*
X12337644Y-3345356D01*
X12408356Y-3345356D01*
X12658356Y-3045356D02*
X12658356Y-2974644D01*
X12587644Y-2974644D01*
X12587644Y-3045356D01*
X12658356Y-3045356D01*
X12658356Y-3345356D02*
X12658356Y-3274644D01*
X12587644Y-3274644D01*
X12587644Y-3345356D01*
X12658356Y-3345356D01*
X12908356Y-3045356D02*
X12908356Y-2974644D01*
X12837644Y-2974644D01*
X12837644Y-3045356D01*
X12908356Y-3045356D01*
X12908356Y-3345356D02*
X12908356Y-3274644D01*
X12837644Y-3274644D01*
X12837644Y-3345356D01*
X12908356Y-3345356D01*
X13508356Y-3045356D02*
X13508356Y-2974644D01*
X13437644Y-2974644D01*
X13437644Y-3045356D01*
X13508356Y-3045356D01*
X13508356Y-3345356D02*
X13508356Y-3274644D01*
X13437644Y-3274644D01*
X13437644Y-3345356D01*
X13508356Y-3345356D01*
X13758356Y-3045356D02*
X13758356Y-2974644D01*
X13687644Y-2974644D01*
X13687644Y-3045356D01*
X13758356Y-3045356D01*
X13758356Y-3345356D02*
X13758356Y-3274644D01*
X13687644Y-3274644D01*
X13687644Y-3345356D01*
X13758356Y-3345356D01*
X14008356Y-3045356D02*
X14008356Y-2974644D01*
X13937644Y-2974644D01*
X13937644Y-3045356D01*
X14008356Y-3045356D01*
X14008356Y-3345356D02*
X14008356Y-3274644D01*
X13937644Y-3274644D01*
X13937644Y-3345356D01*
X14008356Y-3345356D01*
X14258356Y-3045356D02*
X14258356Y-2974644D01*
X14187644Y-2974644D01*
X14187644Y-3045356D01*
X14258356Y-3045356D01*
X14258356Y-3345356D02*
X14258356Y-3274644D01*
X14187644Y-3274644D01*
X14187644Y-3345356D01*
X14258356Y-3345356D01*
X14508356Y-3045356D02*
X14508356Y-2974644D01*
X14437644Y-2974644D01*
X14437644Y-3045356D01*
X14508356Y-3045356D01*
X14508356Y-3345356D02*
X14508356Y-3274644D01*
X14437644Y-3274644D01*
X14437644Y-3345356D01*
X14508356Y-3345356D01*
X14758356Y-3045356D02*
X14758356Y-2974644D01*
X14687644Y-2974644D01*
X14687644Y-3045356D01*
X14758356Y-3045356D01*
X14758356Y-3345356D02*
X14758356Y-3274644D01*
X14687644Y-3274644D01*
X14687644Y-3345356D01*
X14758356Y-3345356D01*
D15*
X4056000Y-7084000D02*
X4108000Y-7032000D01*
X4056000Y-6980000D01*
X4004000Y-7032000D01*
X4056000Y-7084000D01*
X5834000Y-7592000D02*
X5886000Y-7540000D01*
X5834000Y-7488000D01*
X5782000Y-7540000D01*
X5834000Y-7592000D01*
X8374000Y-7592000D02*
X8426000Y-7540000D01*
X8374000Y-7488000D01*
X8322000Y-7540000D01*
X8374000Y-7592000D01*
X10152000Y-7084000D02*
X10204000Y-7032000D01*
X10152000Y-6980000D01*
X10100000Y-7032000D01*
X10152000Y-7084000D01*
D16*
X4502000Y-3385000D02*
X4632000Y-3515000D01*
X4632000Y-3385000D02*
X4502000Y-3515000D01*
X4632000Y-3450000D02*
G75*
G03*
X4632000Y-3450000I-65000J0D01*
G01*
X4502000Y-3945000D02*
X4632000Y-4075000D01*
X4632000Y-3945000D02*
X4502000Y-4075000D01*
X4632000Y-4010000D02*
G75*
G03*
X4632000Y-4010000I-65000J0D01*
G01*
X5002000Y-3385000D02*
X5132000Y-3515000D01*
X5132000Y-3385000D02*
X5002000Y-3515000D01*
X5132000Y-3450000D02*
G75*
G03*
X5132000Y-3450000I-65000J0D01*
G01*
X5002000Y-3945000D02*
X5132000Y-4075000D01*
X5132000Y-3945000D02*
X5002000Y-4075000D01*
X5132000Y-4010000D02*
G75*
G03*
X5132000Y-4010000I-65000J0D01*
G01*
X5502000Y-3385000D02*
X5632000Y-3515000D01*
X5632000Y-3385000D02*
X5502000Y-3515000D01*
X5632000Y-3450000D02*
G75*
G03*
X5632000Y-3450000I-65000J0D01*
G01*
X5502000Y-3945000D02*
X5632000Y-4075000D01*
X5632000Y-3945000D02*
X5502000Y-4075000D01*
X5632000Y-4010000D02*
G75*
G03*
X5632000Y-4010000I-65000J0D01*
G01*
X6002000Y-3385000D02*
X6132000Y-3515000D01*
X6132000Y-3385000D02*
X6002000Y-3515000D01*
X6132000Y-3450000D02*
G75*
G03*
X6132000Y-3450000I-65000J0D01*
G01*
X6002000Y-3945000D02*
X6132000Y-4075000D01*
X6132000Y-3945000D02*
X6002000Y-4075000D01*
X6132000Y-4010000D02*
G75*
G03*
X6132000Y-4010000I-65000J0D01*
G01*
X6502000Y-3385000D02*
X6632000Y-3515000D01*
X6632000Y-3385000D02*
X6502000Y-3515000D01*
X6632000Y-3450000D02*
G75*
G03*
X6632000Y-3450000I-65000J0D01*
G01*
X6502000Y-3945000D02*
X6632000Y-4075000D01*
X6632000Y-3945000D02*
X6502000Y-4075000D01*
X6632000Y-4010000D02*
G75*
G03*
X6632000Y-4010000I-65000J0D01*
G01*
X7002000Y-3385000D02*
X7132000Y-3515000D01*
X7132000Y-3385000D02*
X7002000Y-3515000D01*
X7132000Y-3450000D02*
G75*
G03*
X7132000Y-3450000I-65000J0D01*
G01*
X7002000Y-3945000D02*
X7132000Y-4075000D01*
X7132000Y-3945000D02*
X7002000Y-4075000D01*
X7132000Y-4010000D02*
G75*
G03*
X7132000Y-4010000I-65000J0D01*
G01*
X7502000Y-3385000D02*
X7632000Y-3515000D01*
X7632000Y-3385000D02*
X7502000Y-3515000D01*
X7632000Y-3450000D02*
G75*
G03*
X7632000Y-3450000I-65000J0D01*
G01*
X7502000Y-3945000D02*
X7632000Y-4075000D01*
X7632000Y-3945000D02*
X7502000Y-4075000D01*
X7632000Y-4010000D02*
G75*
G03*
X7632000Y-4010000I-65000J0D01*
G01*
D17*
X3647000Y-2385000D02*
X3957000Y-2695000D01*
X3957000Y-2385000D02*
X3647000Y-2695000D01*
X3802000Y-2385000D02*
X3802000Y-2695000D01*
X3647000Y-2540000D02*
X3957000Y-2540000D01*
X8177000Y-2385000D02*
X8487000Y-2695000D01*
X8487000Y-2385000D02*
X8177000Y-2695000D01*
X8332000Y-2385000D02*
X8332000Y-2695000D01*
X8177000Y-2540000D02*
X8487000Y-2540000D01*
D18*
X10393000Y-2365000D02*
X10743000Y-2715000D01*
X10743000Y-2365000D02*
X10393000Y-2715000D01*
X10691745Y-2663745D02*
X10691745Y-2416255D01*
X10444255Y-2416255D01*
X10444255Y-2663745D01*
X10691745Y-2663745D01*
X15103000Y-2365000D02*
X15453000Y-2715000D01*
X15453000Y-2365000D02*
X15103000Y-2715000D01*
X15401745Y-2663745D02*
X15401745Y-2416255D01*
X15154255Y-2416255D01*
X15154255Y-2663745D01*
X15401745Y-2663745D01*
D11*
X2782619Y-8357524D02*
X2782619Y-8157524D01*
X2782619Y-8157524D02*
X2830238Y-8157524D01*
X2830238Y-8157524D02*
X2858809Y-8167048D01*
X2858809Y-8167048D02*
X2877857Y-8186095D01*
X2877857Y-8186095D02*
X2887381Y-8205143D01*
X2887381Y-8205143D02*
X2896905Y-8243238D01*
X2896905Y-8243238D02*
X2896905Y-8271809D01*
X2896905Y-8271809D02*
X2887381Y-8309905D01*
X2887381Y-8309905D02*
X2877857Y-8328952D01*
X2877857Y-8328952D02*
X2858809Y-8348000D01*
X2858809Y-8348000D02*
X2830238Y-8357524D01*
X2830238Y-8357524D02*
X2782619Y-8357524D01*
X2982619Y-8357524D02*
X2982619Y-8224190D01*
X2982619Y-8262286D02*
X2992143Y-8243238D01*
X2992143Y-8243238D02*
X3001667Y-8233714D01*
X3001667Y-8233714D02*
X3020714Y-8224190D01*
X3020714Y-8224190D02*
X3039762Y-8224190D01*
X3106428Y-8357524D02*
X3106428Y-8224190D01*
X3106428Y-8157524D02*
X3096905Y-8167048D01*
X3096905Y-8167048D02*
X3106428Y-8176571D01*
X3106428Y-8176571D02*
X3115952Y-8167048D01*
X3115952Y-8167048D02*
X3106428Y-8157524D01*
X3106428Y-8157524D02*
X3106428Y-8176571D01*
X3230238Y-8357524D02*
X3211190Y-8348000D01*
X3211190Y-8348000D02*
X3201667Y-8328952D01*
X3201667Y-8328952D02*
X3201667Y-8157524D01*
X3335000Y-8357524D02*
X3315952Y-8348000D01*
X3315952Y-8348000D02*
X3306428Y-8328952D01*
X3306428Y-8328952D02*
X3306428Y-8157524D01*
X3563571Y-8357524D02*
X3563571Y-8157524D01*
X3563571Y-8157524D02*
X3630238Y-8300381D01*
X3630238Y-8300381D02*
X3696905Y-8157524D01*
X3696905Y-8157524D02*
X3696905Y-8357524D01*
X3877857Y-8357524D02*
X3877857Y-8252762D01*
X3877857Y-8252762D02*
X3868333Y-8233714D01*
X3868333Y-8233714D02*
X3849286Y-8224190D01*
X3849286Y-8224190D02*
X3811190Y-8224190D01*
X3811190Y-8224190D02*
X3792143Y-8233714D01*
X3877857Y-8348000D02*
X3858809Y-8357524D01*
X3858809Y-8357524D02*
X3811190Y-8357524D01*
X3811190Y-8357524D02*
X3792143Y-8348000D01*
X3792143Y-8348000D02*
X3782619Y-8328952D01*
X3782619Y-8328952D02*
X3782619Y-8309905D01*
X3782619Y-8309905D02*
X3792143Y-8290857D01*
X3792143Y-8290857D02*
X3811190Y-8281333D01*
X3811190Y-8281333D02*
X3858809Y-8281333D01*
X3858809Y-8281333D02*
X3877857Y-8271809D01*
X3973095Y-8224190D02*
X3973095Y-8424190D01*
X3973095Y-8233714D02*
X3992143Y-8224190D01*
X3992143Y-8224190D02*
X4030238Y-8224190D01*
X4030238Y-8224190D02*
X4049286Y-8233714D01*
X4049286Y-8233714D02*
X4058809Y-8243238D01*
X4058809Y-8243238D02*
X4068333Y-8262286D01*
X4068333Y-8262286D02*
X4068333Y-8319428D01*
X4068333Y-8319428D02*
X4058809Y-8338476D01*
X4058809Y-8338476D02*
X4049286Y-8348000D01*
X4049286Y-8348000D02*
X4030238Y-8357524D01*
X4030238Y-8357524D02*
X3992143Y-8357524D01*
X3992143Y-8357524D02*
X3973095Y-8348000D01*
X4154048Y-8338476D02*
X4163571Y-8348000D01*
X4163571Y-8348000D02*
X4154048Y-8357524D01*
X4154048Y-8357524D02*
X4144524Y-8348000D01*
X4144524Y-8348000D02*
X4154048Y-8338476D01*
X4154048Y-8338476D02*
X4154048Y-8357524D01*
X4154048Y-8233714D02*
X4163571Y-8243238D01*
X4163571Y-8243238D02*
X4154048Y-8252762D01*
X4154048Y-8252762D02*
X4144524Y-8243238D01*
X4144524Y-8243238D02*
X4154048Y-8233714D01*
X4154048Y-8233714D02*
X4154048Y-8252762D01*
D12*
X2495000Y-8665000D02*
X2535000Y-8705000D01*
X2535000Y-8665000D02*
X2495000Y-8705000D01*
D11*
X2820714Y-8577524D02*
X2839762Y-8577524D01*
X2839762Y-8577524D02*
X2858809Y-8587048D01*
X2858809Y-8587048D02*
X2868333Y-8596571D01*
X2868333Y-8596571D02*
X2877857Y-8615619D01*
X2877857Y-8615619D02*
X2887381Y-8653714D01*
X2887381Y-8653714D02*
X2887381Y-8701333D01*
X2887381Y-8701333D02*
X2877857Y-8739429D01*
X2877857Y-8739429D02*
X2868333Y-8758476D01*
X2868333Y-8758476D02*
X2858809Y-8768000D01*
X2858809Y-8768000D02*
X2839762Y-8777524D01*
X2839762Y-8777524D02*
X2820714Y-8777524D01*
X2820714Y-8777524D02*
X2801667Y-8768000D01*
X2801667Y-8768000D02*
X2792143Y-8758476D01*
X2792143Y-8758476D02*
X2782619Y-8739429D01*
X2782619Y-8739429D02*
X2773095Y-8701333D01*
X2773095Y-8701333D02*
X2773095Y-8653714D01*
X2773095Y-8653714D02*
X2782619Y-8615619D01*
X2782619Y-8615619D02*
X2792143Y-8596571D01*
X2792143Y-8596571D02*
X2801667Y-8587048D01*
X2801667Y-8587048D02*
X2820714Y-8577524D01*
X2973095Y-8758476D02*
X2982619Y-8768000D01*
X2982619Y-8768000D02*
X2973095Y-8777524D01*
X2973095Y-8777524D02*
X2963571Y-8768000D01*
X2963571Y-8768000D02*
X2973095Y-8758476D01*
X2973095Y-8758476D02*
X2973095Y-8777524D01*
X3154048Y-8644190D02*
X3154048Y-8777524D01*
X3106428Y-8568000D02*
X3058809Y-8710857D01*
X3058809Y-8710857D02*
X3182619Y-8710857D01*
X3296905Y-8577524D02*
X3315952Y-8577524D01*
X3315952Y-8577524D02*
X3335000Y-8587048D01*
X3335000Y-8587048D02*
X3344524Y-8596571D01*
X3344524Y-8596571D02*
X3354048Y-8615619D01*
X3354048Y-8615619D02*
X3363571Y-8653714D01*
X3363571Y-8653714D02*
X3363571Y-8701333D01*
X3363571Y-8701333D02*
X3354048Y-8739429D01*
X3354048Y-8739429D02*
X3344524Y-8758476D01*
X3344524Y-8758476D02*
X3335000Y-8768000D01*
X3335000Y-8768000D02*
X3315952Y-8777524D01*
X3315952Y-8777524D02*
X3296905Y-8777524D01*
X3296905Y-8777524D02*
X3277857Y-8768000D01*
X3277857Y-8768000D02*
X3268333Y-8758476D01*
X3268333Y-8758476D02*
X3258809Y-8739429D01*
X3258809Y-8739429D02*
X3249286Y-8701333D01*
X3249286Y-8701333D02*
X3249286Y-8653714D01*
X3249286Y-8653714D02*
X3258809Y-8615619D01*
X3258809Y-8615619D02*
X3268333Y-8596571D01*
X3268333Y-8596571D02*
X3277857Y-8587048D01*
X3277857Y-8587048D02*
X3296905Y-8577524D01*
X3487381Y-8577524D02*
X3506429Y-8577524D01*
X3506429Y-8577524D02*
X3525476Y-8587048D01*
X3525476Y-8587048D02*
X3535000Y-8596571D01*
X3535000Y-8596571D02*
X3544524Y-8615619D01*
X3544524Y-8615619D02*
X3554048Y-8653714D01*
X3554048Y-8653714D02*
X3554048Y-8701333D01*
X3554048Y-8701333D02*
X3544524Y-8739429D01*
X3544524Y-8739429D02*
X3535000Y-8758476D01*
X3535000Y-8758476D02*
X3525476Y-8768000D01*
X3525476Y-8768000D02*
X3506429Y-8777524D01*
X3506429Y-8777524D02*
X3487381Y-8777524D01*
X3487381Y-8777524D02*
X3468333Y-8768000D01*
X3468333Y-8768000D02*
X3458809Y-8758476D01*
X3458809Y-8758476D02*
X3449286Y-8739429D01*
X3449286Y-8739429D02*
X3439762Y-8701333D01*
X3439762Y-8701333D02*
X3439762Y-8653714D01*
X3439762Y-8653714D02*
X3449286Y-8615619D01*
X3449286Y-8615619D02*
X3458809Y-8596571D01*
X3458809Y-8596571D02*
X3468333Y-8587048D01*
X3468333Y-8587048D02*
X3487381Y-8577524D01*
X3639762Y-8777524D02*
X3639762Y-8644190D01*
X3639762Y-8663238D02*
X3649286Y-8653714D01*
X3649286Y-8653714D02*
X3668333Y-8644190D01*
X3668333Y-8644190D02*
X3696905Y-8644190D01*
X3696905Y-8644190D02*
X3715952Y-8653714D01*
X3715952Y-8653714D02*
X3725476Y-8672762D01*
X3725476Y-8672762D02*
X3725476Y-8777524D01*
X3725476Y-8672762D02*
X3735000Y-8653714D01*
X3735000Y-8653714D02*
X3754048Y-8644190D01*
X3754048Y-8644190D02*
X3782619Y-8644190D01*
X3782619Y-8644190D02*
X3801667Y-8653714D01*
X3801667Y-8653714D02*
X3811190Y-8672762D01*
X3811190Y-8672762D02*
X3811190Y-8777524D01*
X3906429Y-8777524D02*
X3906429Y-8644190D01*
X3906429Y-8663238D02*
X3915952Y-8653714D01*
X3915952Y-8653714D02*
X3935000Y-8644190D01*
X3935000Y-8644190D02*
X3963571Y-8644190D01*
X3963571Y-8644190D02*
X3982619Y-8653714D01*
X3982619Y-8653714D02*
X3992143Y-8672762D01*
X3992143Y-8672762D02*
X3992143Y-8777524D01*
X3992143Y-8672762D02*
X4001667Y-8653714D01*
X4001667Y-8653714D02*
X4020714Y-8644190D01*
X4020714Y-8644190D02*
X4049286Y-8644190D01*
X4049286Y-8644190D02*
X4068333Y-8653714D01*
X4068333Y-8653714D02*
X4077857Y-8672762D01*
X4077857Y-8672762D02*
X4077857Y-8777524D01*
X4468333Y-8568000D02*
X4296905Y-8825143D01*
X4725476Y-8577524D02*
X4744524Y-8577524D01*
X4744524Y-8577524D02*
X4763572Y-8587048D01*
X4763572Y-8587048D02*
X4773095Y-8596571D01*
X4773095Y-8596571D02*
X4782619Y-8615619D01*
X4782619Y-8615619D02*
X4792143Y-8653714D01*
X4792143Y-8653714D02*
X4792143Y-8701333D01*
X4792143Y-8701333D02*
X4782619Y-8739429D01*
X4782619Y-8739429D02*
X4773095Y-8758476D01*
X4773095Y-8758476D02*
X4763572Y-8768000D01*
X4763572Y-8768000D02*
X4744524Y-8777524D01*
X4744524Y-8777524D02*
X4725476Y-8777524D01*
X4725476Y-8777524D02*
X4706429Y-8768000D01*
X4706429Y-8768000D02*
X4696905Y-8758476D01*
X4696905Y-8758476D02*
X4687381Y-8739429D01*
X4687381Y-8739429D02*
X4677857Y-8701333D01*
X4677857Y-8701333D02*
X4677857Y-8653714D01*
X4677857Y-8653714D02*
X4687381Y-8615619D01*
X4687381Y-8615619D02*
X4696905Y-8596571D01*
X4696905Y-8596571D02*
X4706429Y-8587048D01*
X4706429Y-8587048D02*
X4725476Y-8577524D01*
X4877857Y-8758476D02*
X4887381Y-8768000D01*
X4887381Y-8768000D02*
X4877857Y-8777524D01*
X4877857Y-8777524D02*
X4868334Y-8768000D01*
X4868334Y-8768000D02*
X4877857Y-8758476D01*
X4877857Y-8758476D02*
X4877857Y-8777524D01*
X5011191Y-8577524D02*
X5030238Y-8577524D01*
X5030238Y-8577524D02*
X5049286Y-8587048D01*
X5049286Y-8587048D02*
X5058810Y-8596571D01*
X5058810Y-8596571D02*
X5068334Y-8615619D01*
X5068334Y-8615619D02*
X5077857Y-8653714D01*
X5077857Y-8653714D02*
X5077857Y-8701333D01*
X5077857Y-8701333D02*
X5068334Y-8739429D01*
X5068334Y-8739429D02*
X5058810Y-8758476D01*
X5058810Y-8758476D02*
X5049286Y-8768000D01*
X5049286Y-8768000D02*
X5030238Y-8777524D01*
X5030238Y-8777524D02*
X5011191Y-8777524D01*
X5011191Y-8777524D02*
X4992143Y-8768000D01*
X4992143Y-8768000D02*
X4982619Y-8758476D01*
X4982619Y-8758476D02*
X4973095Y-8739429D01*
X4973095Y-8739429D02*
X4963572Y-8701333D01*
X4963572Y-8701333D02*
X4963572Y-8653714D01*
X4963572Y-8653714D02*
X4973095Y-8615619D01*
X4973095Y-8615619D02*
X4982619Y-8596571D01*
X4982619Y-8596571D02*
X4992143Y-8587048D01*
X4992143Y-8587048D02*
X5011191Y-8577524D01*
X5268334Y-8777524D02*
X5154048Y-8777524D01*
X5211191Y-8777524D02*
X5211191Y-8577524D01*
X5211191Y-8577524D02*
X5192143Y-8606095D01*
X5192143Y-8606095D02*
X5173095Y-8625143D01*
X5173095Y-8625143D02*
X5154048Y-8634667D01*
X5449286Y-8577524D02*
X5354048Y-8577524D01*
X5354048Y-8577524D02*
X5344524Y-8672762D01*
X5344524Y-8672762D02*
X5354048Y-8663238D01*
X5354048Y-8663238D02*
X5373095Y-8653714D01*
X5373095Y-8653714D02*
X5420715Y-8653714D01*
X5420715Y-8653714D02*
X5439762Y-8663238D01*
X5439762Y-8663238D02*
X5449286Y-8672762D01*
X5449286Y-8672762D02*
X5458810Y-8691810D01*
X5458810Y-8691810D02*
X5458810Y-8739429D01*
X5458810Y-8739429D02*
X5449286Y-8758476D01*
X5449286Y-8758476D02*
X5439762Y-8768000D01*
X5439762Y-8768000D02*
X5420715Y-8777524D01*
X5420715Y-8777524D02*
X5373095Y-8777524D01*
X5373095Y-8777524D02*
X5354048Y-8768000D01*
X5354048Y-8768000D02*
X5344524Y-8758476D01*
X5525476Y-8577524D02*
X5658810Y-8577524D01*
X5658810Y-8577524D02*
X5573095Y-8777524D01*
X5725476Y-8577524D02*
X5725476Y-8615619D01*
X5801667Y-8577524D02*
X5801667Y-8615619D01*
X6096905Y-8853714D02*
X6087381Y-8844190D01*
X6087381Y-8844190D02*
X6068334Y-8815619D01*
X6068334Y-8815619D02*
X6058810Y-8796571D01*
X6058810Y-8796571D02*
X6049286Y-8768000D01*
X6049286Y-8768000D02*
X6039762Y-8720381D01*
X6039762Y-8720381D02*
X6039762Y-8682286D01*
X6039762Y-8682286D02*
X6049286Y-8634667D01*
X6049286Y-8634667D02*
X6058810Y-8606095D01*
X6058810Y-8606095D02*
X6068334Y-8587048D01*
X6068334Y-8587048D02*
X6087381Y-8558476D01*
X6087381Y-8558476D02*
X6096905Y-8548952D01*
X6163572Y-8596571D02*
X6173095Y-8587048D01*
X6173095Y-8587048D02*
X6192143Y-8577524D01*
X6192143Y-8577524D02*
X6239762Y-8577524D01*
X6239762Y-8577524D02*
X6258810Y-8587048D01*
X6258810Y-8587048D02*
X6268334Y-8596571D01*
X6268334Y-8596571D02*
X6277857Y-8615619D01*
X6277857Y-8615619D02*
X6277857Y-8634667D01*
X6277857Y-8634667D02*
X6268334Y-8663238D01*
X6268334Y-8663238D02*
X6154048Y-8777524D01*
X6154048Y-8777524D02*
X6277857Y-8777524D01*
X6392143Y-8663238D02*
X6373095Y-8653714D01*
X6373095Y-8653714D02*
X6363572Y-8644190D01*
X6363572Y-8644190D02*
X6354048Y-8625143D01*
X6354048Y-8625143D02*
X6354048Y-8615619D01*
X6354048Y-8615619D02*
X6363572Y-8596571D01*
X6363572Y-8596571D02*
X6373095Y-8587048D01*
X6373095Y-8587048D02*
X6392143Y-8577524D01*
X6392143Y-8577524D02*
X6430238Y-8577524D01*
X6430238Y-8577524D02*
X6449286Y-8587048D01*
X6449286Y-8587048D02*
X6458810Y-8596571D01*
X6458810Y-8596571D02*
X6468334Y-8615619D01*
X6468334Y-8615619D02*
X6468334Y-8625143D01*
X6468334Y-8625143D02*
X6458810Y-8644190D01*
X6458810Y-8644190D02*
X6449286Y-8653714D01*
X6449286Y-8653714D02*
X6430238Y-8663238D01*
X6430238Y-8663238D02*
X6392143Y-8663238D01*
X6392143Y-8663238D02*
X6373095Y-8672762D01*
X6373095Y-8672762D02*
X6363572Y-8682286D01*
X6363572Y-8682286D02*
X6354048Y-8701333D01*
X6354048Y-8701333D02*
X6354048Y-8739429D01*
X6354048Y-8739429D02*
X6363572Y-8758476D01*
X6363572Y-8758476D02*
X6373095Y-8768000D01*
X6373095Y-8768000D02*
X6392143Y-8777524D01*
X6392143Y-8777524D02*
X6430238Y-8777524D01*
X6430238Y-8777524D02*
X6449286Y-8768000D01*
X6449286Y-8768000D02*
X6458810Y-8758476D01*
X6458810Y-8758476D02*
X6468334Y-8739429D01*
X6468334Y-8739429D02*
X6468334Y-8701333D01*
X6468334Y-8701333D02*
X6458810Y-8682286D01*
X6458810Y-8682286D02*
X6449286Y-8672762D01*
X6449286Y-8672762D02*
X6430238Y-8663238D01*
X6706429Y-8777524D02*
X6706429Y-8577524D01*
X6792143Y-8777524D02*
X6792143Y-8672762D01*
X6792143Y-8672762D02*
X6782619Y-8653714D01*
X6782619Y-8653714D02*
X6763572Y-8644190D01*
X6763572Y-8644190D02*
X6735000Y-8644190D01*
X6735000Y-8644190D02*
X6715953Y-8653714D01*
X6715953Y-8653714D02*
X6706429Y-8663238D01*
X6915953Y-8777524D02*
X6896905Y-8768000D01*
X6896905Y-8768000D02*
X6887381Y-8758476D01*
X6887381Y-8758476D02*
X6877857Y-8739429D01*
X6877857Y-8739429D02*
X6877857Y-8682286D01*
X6877857Y-8682286D02*
X6887381Y-8663238D01*
X6887381Y-8663238D02*
X6896905Y-8653714D01*
X6896905Y-8653714D02*
X6915953Y-8644190D01*
X6915953Y-8644190D02*
X6944524Y-8644190D01*
X6944524Y-8644190D02*
X6963572Y-8653714D01*
X6963572Y-8653714D02*
X6973096Y-8663238D01*
X6973096Y-8663238D02*
X6982619Y-8682286D01*
X6982619Y-8682286D02*
X6982619Y-8739429D01*
X6982619Y-8739429D02*
X6973096Y-8758476D01*
X6973096Y-8758476D02*
X6963572Y-8768000D01*
X6963572Y-8768000D02*
X6944524Y-8777524D01*
X6944524Y-8777524D02*
X6915953Y-8777524D01*
X7096905Y-8777524D02*
X7077857Y-8768000D01*
X7077857Y-8768000D02*
X7068334Y-8748952D01*
X7068334Y-8748952D02*
X7068334Y-8577524D01*
X7249286Y-8768000D02*
X7230238Y-8777524D01*
X7230238Y-8777524D02*
X7192143Y-8777524D01*
X7192143Y-8777524D02*
X7173096Y-8768000D01*
X7173096Y-8768000D02*
X7163572Y-8748952D01*
X7163572Y-8748952D02*
X7163572Y-8672762D01*
X7163572Y-8672762D02*
X7173096Y-8653714D01*
X7173096Y-8653714D02*
X7192143Y-8644190D01*
X7192143Y-8644190D02*
X7230238Y-8644190D01*
X7230238Y-8644190D02*
X7249286Y-8653714D01*
X7249286Y-8653714D02*
X7258810Y-8672762D01*
X7258810Y-8672762D02*
X7258810Y-8691810D01*
X7258810Y-8691810D02*
X7163572Y-8710857D01*
X7335000Y-8768000D02*
X7354048Y-8777524D01*
X7354048Y-8777524D02*
X7392143Y-8777524D01*
X7392143Y-8777524D02*
X7411191Y-8768000D01*
X7411191Y-8768000D02*
X7420715Y-8748952D01*
X7420715Y-8748952D02*
X7420715Y-8739429D01*
X7420715Y-8739429D02*
X7411191Y-8720381D01*
X7411191Y-8720381D02*
X7392143Y-8710857D01*
X7392143Y-8710857D02*
X7363572Y-8710857D01*
X7363572Y-8710857D02*
X7344524Y-8701333D01*
X7344524Y-8701333D02*
X7335000Y-8682286D01*
X7335000Y-8682286D02*
X7335000Y-8672762D01*
X7335000Y-8672762D02*
X7344524Y-8653714D01*
X7344524Y-8653714D02*
X7363572Y-8644190D01*
X7363572Y-8644190D02*
X7392143Y-8644190D01*
X7392143Y-8644190D02*
X7411191Y-8653714D01*
X7487381Y-8853714D02*
X7496905Y-8844190D01*
X7496905Y-8844190D02*
X7515953Y-8815619D01*
X7515953Y-8815619D02*
X7525477Y-8796571D01*
X7525477Y-8796571D02*
X7535000Y-8768000D01*
X7535000Y-8768000D02*
X7544524Y-8720381D01*
X7544524Y-8720381D02*
X7544524Y-8682286D01*
X7544524Y-8682286D02*
X7535000Y-8634667D01*
X7535000Y-8634667D02*
X7525477Y-8606095D01*
X7525477Y-8606095D02*
X7515953Y-8587048D01*
X7515953Y-8587048D02*
X7496905Y-8558476D01*
X7496905Y-8558476D02*
X7487381Y-8548952D01*
D13*
X2535000Y-8949000D02*
G75*
G03*
X2535000Y-8949000I-37500J0D01*
G01*
D11*
X2820714Y-8841524D02*
X2839762Y-8841524D01*
X2839762Y-8841524D02*
X2858809Y-8851048D01*
X2858809Y-8851048D02*
X2868333Y-8860571D01*
X2868333Y-8860571D02*
X2877857Y-8879619D01*
X2877857Y-8879619D02*
X2887381Y-8917714D01*
X2887381Y-8917714D02*
X2887381Y-8965333D01*
X2887381Y-8965333D02*
X2877857Y-9003429D01*
X2877857Y-9003429D02*
X2868333Y-9022476D01*
X2868333Y-9022476D02*
X2858809Y-9032000D01*
X2858809Y-9032000D02*
X2839762Y-9041524D01*
X2839762Y-9041524D02*
X2820714Y-9041524D01*
X2820714Y-9041524D02*
X2801667Y-9032000D01*
X2801667Y-9032000D02*
X2792143Y-9022476D01*
X2792143Y-9022476D02*
X2782619Y-9003429D01*
X2782619Y-9003429D02*
X2773095Y-8965333D01*
X2773095Y-8965333D02*
X2773095Y-8917714D01*
X2773095Y-8917714D02*
X2782619Y-8879619D01*
X2782619Y-8879619D02*
X2792143Y-8860571D01*
X2792143Y-8860571D02*
X2801667Y-8851048D01*
X2801667Y-8851048D02*
X2820714Y-8841524D01*
X2973095Y-9022476D02*
X2982619Y-9032000D01*
X2982619Y-9032000D02*
X2973095Y-9041524D01*
X2973095Y-9041524D02*
X2963571Y-9032000D01*
X2963571Y-9032000D02*
X2973095Y-9022476D01*
X2973095Y-9022476D02*
X2973095Y-9041524D01*
X3049286Y-8841524D02*
X3182619Y-8841524D01*
X3182619Y-8841524D02*
X3096905Y-9041524D01*
X3354048Y-8841524D02*
X3258809Y-8841524D01*
X3258809Y-8841524D02*
X3249286Y-8936762D01*
X3249286Y-8936762D02*
X3258809Y-8927238D01*
X3258809Y-8927238D02*
X3277857Y-8917714D01*
X3277857Y-8917714D02*
X3325476Y-8917714D01*
X3325476Y-8917714D02*
X3344524Y-8927238D01*
X3344524Y-8927238D02*
X3354048Y-8936762D01*
X3354048Y-8936762D02*
X3363571Y-8955810D01*
X3363571Y-8955810D02*
X3363571Y-9003429D01*
X3363571Y-9003429D02*
X3354048Y-9022476D01*
X3354048Y-9022476D02*
X3344524Y-9032000D01*
X3344524Y-9032000D02*
X3325476Y-9041524D01*
X3325476Y-9041524D02*
X3277857Y-9041524D01*
X3277857Y-9041524D02*
X3258809Y-9032000D01*
X3258809Y-9032000D02*
X3249286Y-9022476D01*
X3487381Y-8841524D02*
X3506429Y-8841524D01*
X3506429Y-8841524D02*
X3525476Y-8851048D01*
X3525476Y-8851048D02*
X3535000Y-8860571D01*
X3535000Y-8860571D02*
X3544524Y-8879619D01*
X3544524Y-8879619D02*
X3554048Y-8917714D01*
X3554048Y-8917714D02*
X3554048Y-8965333D01*
X3554048Y-8965333D02*
X3544524Y-9003429D01*
X3544524Y-9003429D02*
X3535000Y-9022476D01*
X3535000Y-9022476D02*
X3525476Y-9032000D01*
X3525476Y-9032000D02*
X3506429Y-9041524D01*
X3506429Y-9041524D02*
X3487381Y-9041524D01*
X3487381Y-9041524D02*
X3468333Y-9032000D01*
X3468333Y-9032000D02*
X3458809Y-9022476D01*
X3458809Y-9022476D02*
X3449286Y-9003429D01*
X3449286Y-9003429D02*
X3439762Y-8965333D01*
X3439762Y-8965333D02*
X3439762Y-8917714D01*
X3439762Y-8917714D02*
X3449286Y-8879619D01*
X3449286Y-8879619D02*
X3458809Y-8860571D01*
X3458809Y-8860571D02*
X3468333Y-8851048D01*
X3468333Y-8851048D02*
X3487381Y-8841524D01*
X3639762Y-9041524D02*
X3639762Y-8908190D01*
X3639762Y-8927238D02*
X3649286Y-8917714D01*
X3649286Y-8917714D02*
X3668333Y-8908190D01*
X3668333Y-8908190D02*
X3696905Y-8908190D01*
X3696905Y-8908190D02*
X3715952Y-8917714D01*
X3715952Y-8917714D02*
X3725476Y-8936762D01*
X3725476Y-8936762D02*
X3725476Y-9041524D01*
X3725476Y-8936762D02*
X3735000Y-8917714D01*
X3735000Y-8917714D02*
X3754048Y-8908190D01*
X3754048Y-8908190D02*
X3782619Y-8908190D01*
X3782619Y-8908190D02*
X3801667Y-8917714D01*
X3801667Y-8917714D02*
X3811190Y-8936762D01*
X3811190Y-8936762D02*
X3811190Y-9041524D01*
X3906429Y-9041524D02*
X3906429Y-8908190D01*
X3906429Y-8927238D02*
X3915952Y-8917714D01*
X3915952Y-8917714D02*
X3935000Y-8908190D01*
X3935000Y-8908190D02*
X3963571Y-8908190D01*
X3963571Y-8908190D02*
X3982619Y-8917714D01*
X3982619Y-8917714D02*
X3992143Y-8936762D01*
X3992143Y-8936762D02*
X3992143Y-9041524D01*
X3992143Y-8936762D02*
X4001667Y-8917714D01*
X4001667Y-8917714D02*
X4020714Y-8908190D01*
X4020714Y-8908190D02*
X4049286Y-8908190D01*
X4049286Y-8908190D02*
X4068333Y-8917714D01*
X4068333Y-8917714D02*
X4077857Y-8936762D01*
X4077857Y-8936762D02*
X4077857Y-9041524D01*
X4468333Y-8832000D02*
X4296905Y-9089143D01*
X4725476Y-8841524D02*
X4744524Y-8841524D01*
X4744524Y-8841524D02*
X4763572Y-8851048D01*
X4763572Y-8851048D02*
X4773095Y-8860571D01*
X4773095Y-8860571D02*
X4782619Y-8879619D01*
X4782619Y-8879619D02*
X4792143Y-8917714D01*
X4792143Y-8917714D02*
X4792143Y-8965333D01*
X4792143Y-8965333D02*
X4782619Y-9003429D01*
X4782619Y-9003429D02*
X4773095Y-9022476D01*
X4773095Y-9022476D02*
X4763572Y-9032000D01*
X4763572Y-9032000D02*
X4744524Y-9041524D01*
X4744524Y-9041524D02*
X4725476Y-9041524D01*
X4725476Y-9041524D02*
X4706429Y-9032000D01*
X4706429Y-9032000D02*
X4696905Y-9022476D01*
X4696905Y-9022476D02*
X4687381Y-9003429D01*
X4687381Y-9003429D02*
X4677857Y-8965333D01*
X4677857Y-8965333D02*
X4677857Y-8917714D01*
X4677857Y-8917714D02*
X4687381Y-8879619D01*
X4687381Y-8879619D02*
X4696905Y-8860571D01*
X4696905Y-8860571D02*
X4706429Y-8851048D01*
X4706429Y-8851048D02*
X4725476Y-8841524D01*
X4877857Y-9022476D02*
X4887381Y-9032000D01*
X4887381Y-9032000D02*
X4877857Y-9041524D01*
X4877857Y-9041524D02*
X4868334Y-9032000D01*
X4868334Y-9032000D02*
X4877857Y-9022476D01*
X4877857Y-9022476D02*
X4877857Y-9041524D01*
X5011191Y-8841524D02*
X5030238Y-8841524D01*
X5030238Y-8841524D02*
X5049286Y-8851048D01*
X5049286Y-8851048D02*
X5058810Y-8860571D01*
X5058810Y-8860571D02*
X5068334Y-8879619D01*
X5068334Y-8879619D02*
X5077857Y-8917714D01*
X5077857Y-8917714D02*
X5077857Y-8965333D01*
X5077857Y-8965333D02*
X5068334Y-9003429D01*
X5068334Y-9003429D02*
X5058810Y-9022476D01*
X5058810Y-9022476D02*
X5049286Y-9032000D01*
X5049286Y-9032000D02*
X5030238Y-9041524D01*
X5030238Y-9041524D02*
X5011191Y-9041524D01*
X5011191Y-9041524D02*
X4992143Y-9032000D01*
X4992143Y-9032000D02*
X4982619Y-9022476D01*
X4982619Y-9022476D02*
X4973095Y-9003429D01*
X4973095Y-9003429D02*
X4963572Y-8965333D01*
X4963572Y-8965333D02*
X4963572Y-8917714D01*
X4963572Y-8917714D02*
X4973095Y-8879619D01*
X4973095Y-8879619D02*
X4982619Y-8860571D01*
X4982619Y-8860571D02*
X4992143Y-8851048D01*
X4992143Y-8851048D02*
X5011191Y-8841524D01*
X5154048Y-8860571D02*
X5163572Y-8851048D01*
X5163572Y-8851048D02*
X5182619Y-8841524D01*
X5182619Y-8841524D02*
X5230238Y-8841524D01*
X5230238Y-8841524D02*
X5249286Y-8851048D01*
X5249286Y-8851048D02*
X5258810Y-8860571D01*
X5258810Y-8860571D02*
X5268334Y-8879619D01*
X5268334Y-8879619D02*
X5268334Y-8898667D01*
X5268334Y-8898667D02*
X5258810Y-8927238D01*
X5258810Y-8927238D02*
X5144524Y-9041524D01*
X5144524Y-9041524D02*
X5268334Y-9041524D01*
X5363572Y-9041524D02*
X5401667Y-9041524D01*
X5401667Y-9041524D02*
X5420715Y-9032000D01*
X5420715Y-9032000D02*
X5430238Y-9022476D01*
X5430238Y-9022476D02*
X5449286Y-8993905D01*
X5449286Y-8993905D02*
X5458810Y-8955810D01*
X5458810Y-8955810D02*
X5458810Y-8879619D01*
X5458810Y-8879619D02*
X5449286Y-8860571D01*
X5449286Y-8860571D02*
X5439762Y-8851048D01*
X5439762Y-8851048D02*
X5420715Y-8841524D01*
X5420715Y-8841524D02*
X5382619Y-8841524D01*
X5382619Y-8841524D02*
X5363572Y-8851048D01*
X5363572Y-8851048D02*
X5354048Y-8860571D01*
X5354048Y-8860571D02*
X5344524Y-8879619D01*
X5344524Y-8879619D02*
X5344524Y-8927238D01*
X5344524Y-8927238D02*
X5354048Y-8946286D01*
X5354048Y-8946286D02*
X5363572Y-8955810D01*
X5363572Y-8955810D02*
X5382619Y-8965333D01*
X5382619Y-8965333D02*
X5420715Y-8965333D01*
X5420715Y-8965333D02*
X5439762Y-8955810D01*
X5439762Y-8955810D02*
X5449286Y-8946286D01*
X5449286Y-8946286D02*
X5458810Y-8927238D01*
X5639762Y-8841524D02*
X5544524Y-8841524D01*
X5544524Y-8841524D02*
X5535000Y-8936762D01*
X5535000Y-8936762D02*
X5544524Y-8927238D01*
X5544524Y-8927238D02*
X5563572Y-8917714D01*
X5563572Y-8917714D02*
X5611191Y-8917714D01*
X5611191Y-8917714D02*
X5630238Y-8927238D01*
X5630238Y-8927238D02*
X5639762Y-8936762D01*
X5639762Y-8936762D02*
X5649286Y-8955810D01*
X5649286Y-8955810D02*
X5649286Y-9003429D01*
X5649286Y-9003429D02*
X5639762Y-9022476D01*
X5639762Y-9022476D02*
X5630238Y-9032000D01*
X5630238Y-9032000D02*
X5611191Y-9041524D01*
X5611191Y-9041524D02*
X5563572Y-9041524D01*
X5563572Y-9041524D02*
X5544524Y-9032000D01*
X5544524Y-9032000D02*
X5535000Y-9022476D01*
X5725476Y-8841524D02*
X5725476Y-8879619D01*
X5801667Y-8841524D02*
X5801667Y-8879619D01*
X6096905Y-9117714D02*
X6087381Y-9108190D01*
X6087381Y-9108190D02*
X6068334Y-9079619D01*
X6068334Y-9079619D02*
X6058810Y-9060571D01*
X6058810Y-9060571D02*
X6049286Y-9032000D01*
X6049286Y-9032000D02*
X6039762Y-8984381D01*
X6039762Y-8984381D02*
X6039762Y-8946286D01*
X6039762Y-8946286D02*
X6049286Y-8898667D01*
X6049286Y-8898667D02*
X6058810Y-8870095D01*
X6058810Y-8870095D02*
X6068334Y-8851048D01*
X6068334Y-8851048D02*
X6087381Y-8822476D01*
X6087381Y-8822476D02*
X6096905Y-8812952D01*
X6258810Y-8908190D02*
X6258810Y-9041524D01*
X6211191Y-8832000D02*
X6163572Y-8974857D01*
X6163572Y-8974857D02*
X6287381Y-8974857D01*
X6515953Y-9041524D02*
X6515953Y-8841524D01*
X6601667Y-9041524D02*
X6601667Y-8936762D01*
X6601667Y-8936762D02*
X6592143Y-8917714D01*
X6592143Y-8917714D02*
X6573096Y-8908190D01*
X6573096Y-8908190D02*
X6544524Y-8908190D01*
X6544524Y-8908190D02*
X6525476Y-8917714D01*
X6525476Y-8917714D02*
X6515953Y-8927238D01*
X6725476Y-9041524D02*
X6706429Y-9032000D01*
X6706429Y-9032000D02*
X6696905Y-9022476D01*
X6696905Y-9022476D02*
X6687381Y-9003429D01*
X6687381Y-9003429D02*
X6687381Y-8946286D01*
X6687381Y-8946286D02*
X6696905Y-8927238D01*
X6696905Y-8927238D02*
X6706429Y-8917714D01*
X6706429Y-8917714D02*
X6725476Y-8908190D01*
X6725476Y-8908190D02*
X6754048Y-8908190D01*
X6754048Y-8908190D02*
X6773096Y-8917714D01*
X6773096Y-8917714D02*
X6782619Y-8927238D01*
X6782619Y-8927238D02*
X6792143Y-8946286D01*
X6792143Y-8946286D02*
X6792143Y-9003429D01*
X6792143Y-9003429D02*
X6782619Y-9022476D01*
X6782619Y-9022476D02*
X6773096Y-9032000D01*
X6773096Y-9032000D02*
X6754048Y-9041524D01*
X6754048Y-9041524D02*
X6725476Y-9041524D01*
X6906429Y-9041524D02*
X6887381Y-9032000D01*
X6887381Y-9032000D02*
X6877857Y-9012952D01*
X6877857Y-9012952D02*
X6877857Y-8841524D01*
X7058810Y-9032000D02*
X7039762Y-9041524D01*
X7039762Y-9041524D02*
X7001667Y-9041524D01*
X7001667Y-9041524D02*
X6982619Y-9032000D01*
X6982619Y-9032000D02*
X6973096Y-9012952D01*
X6973096Y-9012952D02*
X6973096Y-8936762D01*
X6973096Y-8936762D02*
X6982619Y-8917714D01*
X6982619Y-8917714D02*
X7001667Y-8908190D01*
X7001667Y-8908190D02*
X7039762Y-8908190D01*
X7039762Y-8908190D02*
X7058810Y-8917714D01*
X7058810Y-8917714D02*
X7068334Y-8936762D01*
X7068334Y-8936762D02*
X7068334Y-8955810D01*
X7068334Y-8955810D02*
X6973096Y-8974857D01*
X7144524Y-9032000D02*
X7163572Y-9041524D01*
X7163572Y-9041524D02*
X7201667Y-9041524D01*
X7201667Y-9041524D02*
X7220715Y-9032000D01*
X7220715Y-9032000D02*
X7230238Y-9012952D01*
X7230238Y-9012952D02*
X7230238Y-9003429D01*
X7230238Y-9003429D02*
X7220715Y-8984381D01*
X7220715Y-8984381D02*
X7201667Y-8974857D01*
X7201667Y-8974857D02*
X7173096Y-8974857D01*
X7173096Y-8974857D02*
X7154048Y-8965333D01*
X7154048Y-8965333D02*
X7144524Y-8946286D01*
X7144524Y-8946286D02*
X7144524Y-8936762D01*
X7144524Y-8936762D02*
X7154048Y-8917714D01*
X7154048Y-8917714D02*
X7173096Y-8908190D01*
X7173096Y-8908190D02*
X7201667Y-8908190D01*
X7201667Y-8908190D02*
X7220715Y-8917714D01*
X7296905Y-9117714D02*
X7306429Y-9108190D01*
X7306429Y-9108190D02*
X7325477Y-9079619D01*
X7325477Y-9079619D02*
X7335000Y-9060571D01*
X7335000Y-9060571D02*
X7344524Y-9032000D01*
X7344524Y-9032000D02*
X7354048Y-8984381D01*
X7354048Y-8984381D02*
X7354048Y-8946286D01*
X7354048Y-8946286D02*
X7344524Y-8898667D01*
X7344524Y-8898667D02*
X7335000Y-8870095D01*
X7335000Y-8870095D02*
X7325477Y-8851048D01*
X7325477Y-8851048D02*
X7306429Y-8822476D01*
X7306429Y-8822476D02*
X7296905Y-8812952D01*
D14*
X2495000Y-9173000D02*
X2495000Y-9253000D01*
X2455000Y-9213000D02*
X2535000Y-9213000D01*
D11*
X2820714Y-9105524D02*
X2839762Y-9105524D01*
X2839762Y-9105524D02*
X2858809Y-9115048D01*
X2858809Y-9115048D02*
X2868333Y-9124571D01*
X2868333Y-9124571D02*
X2877857Y-9143619D01*
X2877857Y-9143619D02*
X2887381Y-9181714D01*
X2887381Y-9181714D02*
X2887381Y-9229333D01*
X2887381Y-9229333D02*
X2877857Y-9267429D01*
X2877857Y-9267429D02*
X2868333Y-9286476D01*
X2868333Y-9286476D02*
X2858809Y-9296000D01*
X2858809Y-9296000D02*
X2839762Y-9305524D01*
X2839762Y-9305524D02*
X2820714Y-9305524D01*
X2820714Y-9305524D02*
X2801667Y-9296000D01*
X2801667Y-9296000D02*
X2792143Y-9286476D01*
X2792143Y-9286476D02*
X2782619Y-9267429D01*
X2782619Y-9267429D02*
X2773095Y-9229333D01*
X2773095Y-9229333D02*
X2773095Y-9181714D01*
X2773095Y-9181714D02*
X2782619Y-9143619D01*
X2782619Y-9143619D02*
X2792143Y-9124571D01*
X2792143Y-9124571D02*
X2801667Y-9115048D01*
X2801667Y-9115048D02*
X2820714Y-9105524D01*
X2973095Y-9286476D02*
X2982619Y-9296000D01*
X2982619Y-9296000D02*
X2973095Y-9305524D01*
X2973095Y-9305524D02*
X2963571Y-9296000D01*
X2963571Y-9296000D02*
X2973095Y-9286476D01*
X2973095Y-9286476D02*
X2973095Y-9305524D01*
X3096905Y-9191238D02*
X3077857Y-9181714D01*
X3077857Y-9181714D02*
X3068333Y-9172190D01*
X3068333Y-9172190D02*
X3058809Y-9153143D01*
X3058809Y-9153143D02*
X3058809Y-9143619D01*
X3058809Y-9143619D02*
X3068333Y-9124571D01*
X3068333Y-9124571D02*
X3077857Y-9115048D01*
X3077857Y-9115048D02*
X3096905Y-9105524D01*
X3096905Y-9105524D02*
X3135000Y-9105524D01*
X3135000Y-9105524D02*
X3154048Y-9115048D01*
X3154048Y-9115048D02*
X3163571Y-9124571D01*
X3163571Y-9124571D02*
X3173095Y-9143619D01*
X3173095Y-9143619D02*
X3173095Y-9153143D01*
X3173095Y-9153143D02*
X3163571Y-9172190D01*
X3163571Y-9172190D02*
X3154048Y-9181714D01*
X3154048Y-9181714D02*
X3135000Y-9191238D01*
X3135000Y-9191238D02*
X3096905Y-9191238D01*
X3096905Y-9191238D02*
X3077857Y-9200762D01*
X3077857Y-9200762D02*
X3068333Y-9210286D01*
X3068333Y-9210286D02*
X3058809Y-9229333D01*
X3058809Y-9229333D02*
X3058809Y-9267429D01*
X3058809Y-9267429D02*
X3068333Y-9286476D01*
X3068333Y-9286476D02*
X3077857Y-9296000D01*
X3077857Y-9296000D02*
X3096905Y-9305524D01*
X3096905Y-9305524D02*
X3135000Y-9305524D01*
X3135000Y-9305524D02*
X3154048Y-9296000D01*
X3154048Y-9296000D02*
X3163571Y-9286476D01*
X3163571Y-9286476D02*
X3173095Y-9267429D01*
X3173095Y-9267429D02*
X3173095Y-9229333D01*
X3173095Y-9229333D02*
X3163571Y-9210286D01*
X3163571Y-9210286D02*
X3154048Y-9200762D01*
X3154048Y-9200762D02*
X3135000Y-9191238D01*
X3296905Y-9105524D02*
X3315952Y-9105524D01*
X3315952Y-9105524D02*
X3335000Y-9115048D01*
X3335000Y-9115048D02*
X3344524Y-9124571D01*
X3344524Y-9124571D02*
X3354048Y-9143619D01*
X3354048Y-9143619D02*
X3363571Y-9181714D01*
X3363571Y-9181714D02*
X3363571Y-9229333D01*
X3363571Y-9229333D02*
X3354048Y-9267429D01*
X3354048Y-9267429D02*
X3344524Y-9286476D01*
X3344524Y-9286476D02*
X3335000Y-9296000D01*
X3335000Y-9296000D02*
X3315952Y-9305524D01*
X3315952Y-9305524D02*
X3296905Y-9305524D01*
X3296905Y-9305524D02*
X3277857Y-9296000D01*
X3277857Y-9296000D02*
X3268333Y-9286476D01*
X3268333Y-9286476D02*
X3258809Y-9267429D01*
X3258809Y-9267429D02*
X3249286Y-9229333D01*
X3249286Y-9229333D02*
X3249286Y-9181714D01*
X3249286Y-9181714D02*
X3258809Y-9143619D01*
X3258809Y-9143619D02*
X3268333Y-9124571D01*
X3268333Y-9124571D02*
X3277857Y-9115048D01*
X3277857Y-9115048D02*
X3296905Y-9105524D01*
X3487381Y-9105524D02*
X3506429Y-9105524D01*
X3506429Y-9105524D02*
X3525476Y-9115048D01*
X3525476Y-9115048D02*
X3535000Y-9124571D01*
X3535000Y-9124571D02*
X3544524Y-9143619D01*
X3544524Y-9143619D02*
X3554048Y-9181714D01*
X3554048Y-9181714D02*
X3554048Y-9229333D01*
X3554048Y-9229333D02*
X3544524Y-9267429D01*
X3544524Y-9267429D02*
X3535000Y-9286476D01*
X3535000Y-9286476D02*
X3525476Y-9296000D01*
X3525476Y-9296000D02*
X3506429Y-9305524D01*
X3506429Y-9305524D02*
X3487381Y-9305524D01*
X3487381Y-9305524D02*
X3468333Y-9296000D01*
X3468333Y-9296000D02*
X3458809Y-9286476D01*
X3458809Y-9286476D02*
X3449286Y-9267429D01*
X3449286Y-9267429D02*
X3439762Y-9229333D01*
X3439762Y-9229333D02*
X3439762Y-9181714D01*
X3439762Y-9181714D02*
X3449286Y-9143619D01*
X3449286Y-9143619D02*
X3458809Y-9124571D01*
X3458809Y-9124571D02*
X3468333Y-9115048D01*
X3468333Y-9115048D02*
X3487381Y-9105524D01*
X3639762Y-9305524D02*
X3639762Y-9172190D01*
X3639762Y-9191238D02*
X3649286Y-9181714D01*
X3649286Y-9181714D02*
X3668333Y-9172190D01*
X3668333Y-9172190D02*
X3696905Y-9172190D01*
X3696905Y-9172190D02*
X3715952Y-9181714D01*
X3715952Y-9181714D02*
X3725476Y-9200762D01*
X3725476Y-9200762D02*
X3725476Y-9305524D01*
X3725476Y-9200762D02*
X3735000Y-9181714D01*
X3735000Y-9181714D02*
X3754048Y-9172190D01*
X3754048Y-9172190D02*
X3782619Y-9172190D01*
X3782619Y-9172190D02*
X3801667Y-9181714D01*
X3801667Y-9181714D02*
X3811190Y-9200762D01*
X3811190Y-9200762D02*
X3811190Y-9305524D01*
X3906429Y-9305524D02*
X3906429Y-9172190D01*
X3906429Y-9191238D02*
X3915952Y-9181714D01*
X3915952Y-9181714D02*
X3935000Y-9172190D01*
X3935000Y-9172190D02*
X3963571Y-9172190D01*
X3963571Y-9172190D02*
X3982619Y-9181714D01*
X3982619Y-9181714D02*
X3992143Y-9200762D01*
X3992143Y-9200762D02*
X3992143Y-9305524D01*
X3992143Y-9200762D02*
X4001667Y-9181714D01*
X4001667Y-9181714D02*
X4020714Y-9172190D01*
X4020714Y-9172190D02*
X4049286Y-9172190D01*
X4049286Y-9172190D02*
X4068333Y-9181714D01*
X4068333Y-9181714D02*
X4077857Y-9200762D01*
X4077857Y-9200762D02*
X4077857Y-9305524D01*
X4468333Y-9096000D02*
X4296905Y-9353143D01*
X4725476Y-9105524D02*
X4744524Y-9105524D01*
X4744524Y-9105524D02*
X4763572Y-9115048D01*
X4763572Y-9115048D02*
X4773095Y-9124571D01*
X4773095Y-9124571D02*
X4782619Y-9143619D01*
X4782619Y-9143619D02*
X4792143Y-9181714D01*
X4792143Y-9181714D02*
X4792143Y-9229333D01*
X4792143Y-9229333D02*
X4782619Y-9267429D01*
X4782619Y-9267429D02*
X4773095Y-9286476D01*
X4773095Y-9286476D02*
X4763572Y-9296000D01*
X4763572Y-9296000D02*
X4744524Y-9305524D01*
X4744524Y-9305524D02*
X4725476Y-9305524D01*
X4725476Y-9305524D02*
X4706429Y-9296000D01*
X4706429Y-9296000D02*
X4696905Y-9286476D01*
X4696905Y-9286476D02*
X4687381Y-9267429D01*
X4687381Y-9267429D02*
X4677857Y-9229333D01*
X4677857Y-9229333D02*
X4677857Y-9181714D01*
X4677857Y-9181714D02*
X4687381Y-9143619D01*
X4687381Y-9143619D02*
X4696905Y-9124571D01*
X4696905Y-9124571D02*
X4706429Y-9115048D01*
X4706429Y-9115048D02*
X4725476Y-9105524D01*
X4877857Y-9286476D02*
X4887381Y-9296000D01*
X4887381Y-9296000D02*
X4877857Y-9305524D01*
X4877857Y-9305524D02*
X4868334Y-9296000D01*
X4868334Y-9296000D02*
X4877857Y-9286476D01*
X4877857Y-9286476D02*
X4877857Y-9305524D01*
X5011191Y-9105524D02*
X5030238Y-9105524D01*
X5030238Y-9105524D02*
X5049286Y-9115048D01*
X5049286Y-9115048D02*
X5058810Y-9124571D01*
X5058810Y-9124571D02*
X5068334Y-9143619D01*
X5068334Y-9143619D02*
X5077857Y-9181714D01*
X5077857Y-9181714D02*
X5077857Y-9229333D01*
X5077857Y-9229333D02*
X5068334Y-9267429D01*
X5068334Y-9267429D02*
X5058810Y-9286476D01*
X5058810Y-9286476D02*
X5049286Y-9296000D01*
X5049286Y-9296000D02*
X5030238Y-9305524D01*
X5030238Y-9305524D02*
X5011191Y-9305524D01*
X5011191Y-9305524D02*
X4992143Y-9296000D01*
X4992143Y-9296000D02*
X4982619Y-9286476D01*
X4982619Y-9286476D02*
X4973095Y-9267429D01*
X4973095Y-9267429D02*
X4963572Y-9229333D01*
X4963572Y-9229333D02*
X4963572Y-9181714D01*
X4963572Y-9181714D02*
X4973095Y-9143619D01*
X4973095Y-9143619D02*
X4982619Y-9124571D01*
X4982619Y-9124571D02*
X4992143Y-9115048D01*
X4992143Y-9115048D02*
X5011191Y-9105524D01*
X5144524Y-9105524D02*
X5268334Y-9105524D01*
X5268334Y-9105524D02*
X5201667Y-9181714D01*
X5201667Y-9181714D02*
X5230238Y-9181714D01*
X5230238Y-9181714D02*
X5249286Y-9191238D01*
X5249286Y-9191238D02*
X5258810Y-9200762D01*
X5258810Y-9200762D02*
X5268334Y-9219810D01*
X5268334Y-9219810D02*
X5268334Y-9267429D01*
X5268334Y-9267429D02*
X5258810Y-9286476D01*
X5258810Y-9286476D02*
X5249286Y-9296000D01*
X5249286Y-9296000D02*
X5230238Y-9305524D01*
X5230238Y-9305524D02*
X5173095Y-9305524D01*
X5173095Y-9305524D02*
X5154048Y-9296000D01*
X5154048Y-9296000D02*
X5144524Y-9286476D01*
X5458810Y-9305524D02*
X5344524Y-9305524D01*
X5401667Y-9305524D02*
X5401667Y-9105524D01*
X5401667Y-9105524D02*
X5382619Y-9134095D01*
X5382619Y-9134095D02*
X5363572Y-9153143D01*
X5363572Y-9153143D02*
X5344524Y-9162667D01*
X5639762Y-9105524D02*
X5544524Y-9105524D01*
X5544524Y-9105524D02*
X5535000Y-9200762D01*
X5535000Y-9200762D02*
X5544524Y-9191238D01*
X5544524Y-9191238D02*
X5563572Y-9181714D01*
X5563572Y-9181714D02*
X5611191Y-9181714D01*
X5611191Y-9181714D02*
X5630238Y-9191238D01*
X5630238Y-9191238D02*
X5639762Y-9200762D01*
X5639762Y-9200762D02*
X5649286Y-9219810D01*
X5649286Y-9219810D02*
X5649286Y-9267429D01*
X5649286Y-9267429D02*
X5639762Y-9286476D01*
X5639762Y-9286476D02*
X5630238Y-9296000D01*
X5630238Y-9296000D02*
X5611191Y-9305524D01*
X5611191Y-9305524D02*
X5563572Y-9305524D01*
X5563572Y-9305524D02*
X5544524Y-9296000D01*
X5544524Y-9296000D02*
X5535000Y-9286476D01*
X5725476Y-9105524D02*
X5725476Y-9143619D01*
X5801667Y-9105524D02*
X5801667Y-9143619D01*
X6096905Y-9381714D02*
X6087381Y-9372190D01*
X6087381Y-9372190D02*
X6068334Y-9343619D01*
X6068334Y-9343619D02*
X6058810Y-9324571D01*
X6058810Y-9324571D02*
X6049286Y-9296000D01*
X6049286Y-9296000D02*
X6039762Y-9248381D01*
X6039762Y-9248381D02*
X6039762Y-9210286D01*
X6039762Y-9210286D02*
X6049286Y-9162667D01*
X6049286Y-9162667D02*
X6058810Y-9134095D01*
X6058810Y-9134095D02*
X6068334Y-9115048D01*
X6068334Y-9115048D02*
X6087381Y-9086476D01*
X6087381Y-9086476D02*
X6096905Y-9076952D01*
X6163572Y-9124571D02*
X6173095Y-9115048D01*
X6173095Y-9115048D02*
X6192143Y-9105524D01*
X6192143Y-9105524D02*
X6239762Y-9105524D01*
X6239762Y-9105524D02*
X6258810Y-9115048D01*
X6258810Y-9115048D02*
X6268334Y-9124571D01*
X6268334Y-9124571D02*
X6277857Y-9143619D01*
X6277857Y-9143619D02*
X6277857Y-9162667D01*
X6277857Y-9162667D02*
X6268334Y-9191238D01*
X6268334Y-9191238D02*
X6154048Y-9305524D01*
X6154048Y-9305524D02*
X6277857Y-9305524D01*
X6354048Y-9124571D02*
X6363572Y-9115048D01*
X6363572Y-9115048D02*
X6382619Y-9105524D01*
X6382619Y-9105524D02*
X6430238Y-9105524D01*
X6430238Y-9105524D02*
X6449286Y-9115048D01*
X6449286Y-9115048D02*
X6458810Y-9124571D01*
X6458810Y-9124571D02*
X6468334Y-9143619D01*
X6468334Y-9143619D02*
X6468334Y-9162667D01*
X6468334Y-9162667D02*
X6458810Y-9191238D01*
X6458810Y-9191238D02*
X6344524Y-9305524D01*
X6344524Y-9305524D02*
X6468334Y-9305524D01*
X6706429Y-9305524D02*
X6706429Y-9105524D01*
X6792143Y-9305524D02*
X6792143Y-9200762D01*
X6792143Y-9200762D02*
X6782619Y-9181714D01*
X6782619Y-9181714D02*
X6763572Y-9172190D01*
X6763572Y-9172190D02*
X6735000Y-9172190D01*
X6735000Y-9172190D02*
X6715953Y-9181714D01*
X6715953Y-9181714D02*
X6706429Y-9191238D01*
X6915953Y-9305524D02*
X6896905Y-9296000D01*
X6896905Y-9296000D02*
X6887381Y-9286476D01*
X6887381Y-9286476D02*
X6877857Y-9267429D01*
X6877857Y-9267429D02*
X6877857Y-9210286D01*
X6877857Y-9210286D02*
X6887381Y-9191238D01*
X6887381Y-9191238D02*
X6896905Y-9181714D01*
X6896905Y-9181714D02*
X6915953Y-9172190D01*
X6915953Y-9172190D02*
X6944524Y-9172190D01*
X6944524Y-9172190D02*
X6963572Y-9181714D01*
X6963572Y-9181714D02*
X6973096Y-9191238D01*
X6973096Y-9191238D02*
X6982619Y-9210286D01*
X6982619Y-9210286D02*
X6982619Y-9267429D01*
X6982619Y-9267429D02*
X6973096Y-9286476D01*
X6973096Y-9286476D02*
X6963572Y-9296000D01*
X6963572Y-9296000D02*
X6944524Y-9305524D01*
X6944524Y-9305524D02*
X6915953Y-9305524D01*
X7096905Y-9305524D02*
X7077857Y-9296000D01*
X7077857Y-9296000D02*
X7068334Y-9276952D01*
X7068334Y-9276952D02*
X7068334Y-9105524D01*
X7249286Y-9296000D02*
X7230238Y-9305524D01*
X7230238Y-9305524D02*
X7192143Y-9305524D01*
X7192143Y-9305524D02*
X7173096Y-9296000D01*
X7173096Y-9296000D02*
X7163572Y-9276952D01*
X7163572Y-9276952D02*
X7163572Y-9200762D01*
X7163572Y-9200762D02*
X7173096Y-9181714D01*
X7173096Y-9181714D02*
X7192143Y-9172190D01*
X7192143Y-9172190D02*
X7230238Y-9172190D01*
X7230238Y-9172190D02*
X7249286Y-9181714D01*
X7249286Y-9181714D02*
X7258810Y-9200762D01*
X7258810Y-9200762D02*
X7258810Y-9219810D01*
X7258810Y-9219810D02*
X7163572Y-9238857D01*
X7335000Y-9296000D02*
X7354048Y-9305524D01*
X7354048Y-9305524D02*
X7392143Y-9305524D01*
X7392143Y-9305524D02*
X7411191Y-9296000D01*
X7411191Y-9296000D02*
X7420715Y-9276952D01*
X7420715Y-9276952D02*
X7420715Y-9267429D01*
X7420715Y-9267429D02*
X7411191Y-9248381D01*
X7411191Y-9248381D02*
X7392143Y-9238857D01*
X7392143Y-9238857D02*
X7363572Y-9238857D01*
X7363572Y-9238857D02*
X7344524Y-9229333D01*
X7344524Y-9229333D02*
X7335000Y-9210286D01*
X7335000Y-9210286D02*
X7335000Y-9200762D01*
X7335000Y-9200762D02*
X7344524Y-9181714D01*
X7344524Y-9181714D02*
X7363572Y-9172190D01*
X7363572Y-9172190D02*
X7392143Y-9172190D01*
X7392143Y-9172190D02*
X7411191Y-9181714D01*
X7487381Y-9381714D02*
X7496905Y-9372190D01*
X7496905Y-9372190D02*
X7515953Y-9343619D01*
X7515953Y-9343619D02*
X7525477Y-9324571D01*
X7525477Y-9324571D02*
X7535000Y-9296000D01*
X7535000Y-9296000D02*
X7544524Y-9248381D01*
X7544524Y-9248381D02*
X7544524Y-9210286D01*
X7544524Y-9210286D02*
X7535000Y-9162667D01*
X7535000Y-9162667D02*
X7525477Y-9134095D01*
X7525477Y-9134095D02*
X7515953Y-9115048D01*
X7515953Y-9115048D02*
X7496905Y-9086476D01*
X7496905Y-9086476D02*
X7487381Y-9076952D01*
D10*
X2520356Y-9512356D02*
X2520356Y-9441644D01*
X2449644Y-9441644D01*
X2449644Y-9512356D01*
X2520356Y-9512356D01*
D11*
X2887381Y-9569524D02*
X2773095Y-9569524D01*
X2830238Y-9569524D02*
X2830238Y-9369524D01*
X2830238Y-9369524D02*
X2811190Y-9398095D01*
X2811190Y-9398095D02*
X2792143Y-9417143D01*
X2792143Y-9417143D02*
X2773095Y-9426667D01*
X2973095Y-9550476D02*
X2982619Y-9560000D01*
X2982619Y-9560000D02*
X2973095Y-9569524D01*
X2973095Y-9569524D02*
X2963571Y-9560000D01*
X2963571Y-9560000D02*
X2973095Y-9550476D01*
X2973095Y-9550476D02*
X2973095Y-9569524D01*
X3106428Y-9369524D02*
X3125476Y-9369524D01*
X3125476Y-9369524D02*
X3144524Y-9379048D01*
X3144524Y-9379048D02*
X3154048Y-9388571D01*
X3154048Y-9388571D02*
X3163571Y-9407619D01*
X3163571Y-9407619D02*
X3173095Y-9445714D01*
X3173095Y-9445714D02*
X3173095Y-9493333D01*
X3173095Y-9493333D02*
X3163571Y-9531429D01*
X3163571Y-9531429D02*
X3154048Y-9550476D01*
X3154048Y-9550476D02*
X3144524Y-9560000D01*
X3144524Y-9560000D02*
X3125476Y-9569524D01*
X3125476Y-9569524D02*
X3106428Y-9569524D01*
X3106428Y-9569524D02*
X3087381Y-9560000D01*
X3087381Y-9560000D02*
X3077857Y-9550476D01*
X3077857Y-9550476D02*
X3068333Y-9531429D01*
X3068333Y-9531429D02*
X3058809Y-9493333D01*
X3058809Y-9493333D02*
X3058809Y-9445714D01*
X3058809Y-9445714D02*
X3068333Y-9407619D01*
X3068333Y-9407619D02*
X3077857Y-9388571D01*
X3077857Y-9388571D02*
X3087381Y-9379048D01*
X3087381Y-9379048D02*
X3106428Y-9369524D01*
X3296905Y-9369524D02*
X3315952Y-9369524D01*
X3315952Y-9369524D02*
X3335000Y-9379048D01*
X3335000Y-9379048D02*
X3344524Y-9388571D01*
X3344524Y-9388571D02*
X3354048Y-9407619D01*
X3354048Y-9407619D02*
X3363571Y-9445714D01*
X3363571Y-9445714D02*
X3363571Y-9493333D01*
X3363571Y-9493333D02*
X3354048Y-9531429D01*
X3354048Y-9531429D02*
X3344524Y-9550476D01*
X3344524Y-9550476D02*
X3335000Y-9560000D01*
X3335000Y-9560000D02*
X3315952Y-9569524D01*
X3315952Y-9569524D02*
X3296905Y-9569524D01*
X3296905Y-9569524D02*
X3277857Y-9560000D01*
X3277857Y-9560000D02*
X3268333Y-9550476D01*
X3268333Y-9550476D02*
X3258809Y-9531429D01*
X3258809Y-9531429D02*
X3249286Y-9493333D01*
X3249286Y-9493333D02*
X3249286Y-9445714D01*
X3249286Y-9445714D02*
X3258809Y-9407619D01*
X3258809Y-9407619D02*
X3268333Y-9388571D01*
X3268333Y-9388571D02*
X3277857Y-9379048D01*
X3277857Y-9379048D02*
X3296905Y-9369524D01*
X3487381Y-9369524D02*
X3506429Y-9369524D01*
X3506429Y-9369524D02*
X3525476Y-9379048D01*
X3525476Y-9379048D02*
X3535000Y-9388571D01*
X3535000Y-9388571D02*
X3544524Y-9407619D01*
X3544524Y-9407619D02*
X3554048Y-9445714D01*
X3554048Y-9445714D02*
X3554048Y-9493333D01*
X3554048Y-9493333D02*
X3544524Y-9531429D01*
X3544524Y-9531429D02*
X3535000Y-9550476D01*
X3535000Y-9550476D02*
X3525476Y-9560000D01*
X3525476Y-9560000D02*
X3506429Y-9569524D01*
X3506429Y-9569524D02*
X3487381Y-9569524D01*
X3487381Y-9569524D02*
X3468333Y-9560000D01*
X3468333Y-9560000D02*
X3458809Y-9550476D01*
X3458809Y-9550476D02*
X3449286Y-9531429D01*
X3449286Y-9531429D02*
X3439762Y-9493333D01*
X3439762Y-9493333D02*
X3439762Y-9445714D01*
X3439762Y-9445714D02*
X3449286Y-9407619D01*
X3449286Y-9407619D02*
X3458809Y-9388571D01*
X3458809Y-9388571D02*
X3468333Y-9379048D01*
X3468333Y-9379048D02*
X3487381Y-9369524D01*
X3639762Y-9569524D02*
X3639762Y-9436190D01*
X3639762Y-9455238D02*
X3649286Y-9445714D01*
X3649286Y-9445714D02*
X3668333Y-9436190D01*
X3668333Y-9436190D02*
X3696905Y-9436190D01*
X3696905Y-9436190D02*
X3715952Y-9445714D01*
X3715952Y-9445714D02*
X3725476Y-9464762D01*
X3725476Y-9464762D02*
X3725476Y-9569524D01*
X3725476Y-9464762D02*
X3735000Y-9445714D01*
X3735000Y-9445714D02*
X3754048Y-9436190D01*
X3754048Y-9436190D02*
X3782619Y-9436190D01*
X3782619Y-9436190D02*
X3801667Y-9445714D01*
X3801667Y-9445714D02*
X3811190Y-9464762D01*
X3811190Y-9464762D02*
X3811190Y-9569524D01*
X3906429Y-9569524D02*
X3906429Y-9436190D01*
X3906429Y-9455238D02*
X3915952Y-9445714D01*
X3915952Y-9445714D02*
X3935000Y-9436190D01*
X3935000Y-9436190D02*
X3963571Y-9436190D01*
X3963571Y-9436190D02*
X3982619Y-9445714D01*
X3982619Y-9445714D02*
X3992143Y-9464762D01*
X3992143Y-9464762D02*
X3992143Y-9569524D01*
X3992143Y-9464762D02*
X4001667Y-9445714D01*
X4001667Y-9445714D02*
X4020714Y-9436190D01*
X4020714Y-9436190D02*
X4049286Y-9436190D01*
X4049286Y-9436190D02*
X4068333Y-9445714D01*
X4068333Y-9445714D02*
X4077857Y-9464762D01*
X4077857Y-9464762D02*
X4077857Y-9569524D01*
X4468333Y-9360000D02*
X4296905Y-9617143D01*
X4725476Y-9369524D02*
X4744524Y-9369524D01*
X4744524Y-9369524D02*
X4763572Y-9379048D01*
X4763572Y-9379048D02*
X4773095Y-9388571D01*
X4773095Y-9388571D02*
X4782619Y-9407619D01*
X4782619Y-9407619D02*
X4792143Y-9445714D01*
X4792143Y-9445714D02*
X4792143Y-9493333D01*
X4792143Y-9493333D02*
X4782619Y-9531429D01*
X4782619Y-9531429D02*
X4773095Y-9550476D01*
X4773095Y-9550476D02*
X4763572Y-9560000D01*
X4763572Y-9560000D02*
X4744524Y-9569524D01*
X4744524Y-9569524D02*
X4725476Y-9569524D01*
X4725476Y-9569524D02*
X4706429Y-9560000D01*
X4706429Y-9560000D02*
X4696905Y-9550476D01*
X4696905Y-9550476D02*
X4687381Y-9531429D01*
X4687381Y-9531429D02*
X4677857Y-9493333D01*
X4677857Y-9493333D02*
X4677857Y-9445714D01*
X4677857Y-9445714D02*
X4687381Y-9407619D01*
X4687381Y-9407619D02*
X4696905Y-9388571D01*
X4696905Y-9388571D02*
X4706429Y-9379048D01*
X4706429Y-9379048D02*
X4725476Y-9369524D01*
X4877857Y-9550476D02*
X4887381Y-9560000D01*
X4887381Y-9560000D02*
X4877857Y-9569524D01*
X4877857Y-9569524D02*
X4868334Y-9560000D01*
X4868334Y-9560000D02*
X4877857Y-9550476D01*
X4877857Y-9550476D02*
X4877857Y-9569524D01*
X5011191Y-9369524D02*
X5030238Y-9369524D01*
X5030238Y-9369524D02*
X5049286Y-9379048D01*
X5049286Y-9379048D02*
X5058810Y-9388571D01*
X5058810Y-9388571D02*
X5068334Y-9407619D01*
X5068334Y-9407619D02*
X5077857Y-9445714D01*
X5077857Y-9445714D02*
X5077857Y-9493333D01*
X5077857Y-9493333D02*
X5068334Y-9531429D01*
X5068334Y-9531429D02*
X5058810Y-9550476D01*
X5058810Y-9550476D02*
X5049286Y-9560000D01*
X5049286Y-9560000D02*
X5030238Y-9569524D01*
X5030238Y-9569524D02*
X5011191Y-9569524D01*
X5011191Y-9569524D02*
X4992143Y-9560000D01*
X4992143Y-9560000D02*
X4982619Y-9550476D01*
X4982619Y-9550476D02*
X4973095Y-9531429D01*
X4973095Y-9531429D02*
X4963572Y-9493333D01*
X4963572Y-9493333D02*
X4963572Y-9445714D01*
X4963572Y-9445714D02*
X4973095Y-9407619D01*
X4973095Y-9407619D02*
X4982619Y-9388571D01*
X4982619Y-9388571D02*
X4992143Y-9379048D01*
X4992143Y-9379048D02*
X5011191Y-9369524D01*
X5144524Y-9369524D02*
X5268334Y-9369524D01*
X5268334Y-9369524D02*
X5201667Y-9445714D01*
X5201667Y-9445714D02*
X5230238Y-9445714D01*
X5230238Y-9445714D02*
X5249286Y-9455238D01*
X5249286Y-9455238D02*
X5258810Y-9464762D01*
X5258810Y-9464762D02*
X5268334Y-9483810D01*
X5268334Y-9483810D02*
X5268334Y-9531429D01*
X5268334Y-9531429D02*
X5258810Y-9550476D01*
X5258810Y-9550476D02*
X5249286Y-9560000D01*
X5249286Y-9560000D02*
X5230238Y-9569524D01*
X5230238Y-9569524D02*
X5173095Y-9569524D01*
X5173095Y-9569524D02*
X5154048Y-9560000D01*
X5154048Y-9560000D02*
X5144524Y-9550476D01*
X5363572Y-9569524D02*
X5401667Y-9569524D01*
X5401667Y-9569524D02*
X5420715Y-9560000D01*
X5420715Y-9560000D02*
X5430238Y-9550476D01*
X5430238Y-9550476D02*
X5449286Y-9521905D01*
X5449286Y-9521905D02*
X5458810Y-9483810D01*
X5458810Y-9483810D02*
X5458810Y-9407619D01*
X5458810Y-9407619D02*
X5449286Y-9388571D01*
X5449286Y-9388571D02*
X5439762Y-9379048D01*
X5439762Y-9379048D02*
X5420715Y-9369524D01*
X5420715Y-9369524D02*
X5382619Y-9369524D01*
X5382619Y-9369524D02*
X5363572Y-9379048D01*
X5363572Y-9379048D02*
X5354048Y-9388571D01*
X5354048Y-9388571D02*
X5344524Y-9407619D01*
X5344524Y-9407619D02*
X5344524Y-9455238D01*
X5344524Y-9455238D02*
X5354048Y-9474286D01*
X5354048Y-9474286D02*
X5363572Y-9483810D01*
X5363572Y-9483810D02*
X5382619Y-9493333D01*
X5382619Y-9493333D02*
X5420715Y-9493333D01*
X5420715Y-9493333D02*
X5439762Y-9483810D01*
X5439762Y-9483810D02*
X5449286Y-9474286D01*
X5449286Y-9474286D02*
X5458810Y-9455238D01*
X5630238Y-9436190D02*
X5630238Y-9569524D01*
X5582619Y-9360000D02*
X5535000Y-9502857D01*
X5535000Y-9502857D02*
X5658810Y-9502857D01*
X5725476Y-9369524D02*
X5725476Y-9407619D01*
X5801667Y-9369524D02*
X5801667Y-9407619D01*
X6096905Y-9645714D02*
X6087381Y-9636190D01*
X6087381Y-9636190D02*
X6068334Y-9607619D01*
X6068334Y-9607619D02*
X6058810Y-9588571D01*
X6058810Y-9588571D02*
X6049286Y-9560000D01*
X6049286Y-9560000D02*
X6039762Y-9512381D01*
X6039762Y-9512381D02*
X6039762Y-9474286D01*
X6039762Y-9474286D02*
X6049286Y-9426667D01*
X6049286Y-9426667D02*
X6058810Y-9398095D01*
X6058810Y-9398095D02*
X6068334Y-9379048D01*
X6068334Y-9379048D02*
X6087381Y-9350476D01*
X6087381Y-9350476D02*
X6096905Y-9340952D01*
X6163572Y-9388571D02*
X6173095Y-9379048D01*
X6173095Y-9379048D02*
X6192143Y-9369524D01*
X6192143Y-9369524D02*
X6239762Y-9369524D01*
X6239762Y-9369524D02*
X6258810Y-9379048D01*
X6258810Y-9379048D02*
X6268334Y-9388571D01*
X6268334Y-9388571D02*
X6277857Y-9407619D01*
X6277857Y-9407619D02*
X6277857Y-9426667D01*
X6277857Y-9426667D02*
X6268334Y-9455238D01*
X6268334Y-9455238D02*
X6154048Y-9569524D01*
X6154048Y-9569524D02*
X6277857Y-9569524D01*
X6392143Y-9455238D02*
X6373095Y-9445714D01*
X6373095Y-9445714D02*
X6363572Y-9436190D01*
X6363572Y-9436190D02*
X6354048Y-9417143D01*
X6354048Y-9417143D02*
X6354048Y-9407619D01*
X6354048Y-9407619D02*
X6363572Y-9388571D01*
X6363572Y-9388571D02*
X6373095Y-9379048D01*
X6373095Y-9379048D02*
X6392143Y-9369524D01*
X6392143Y-9369524D02*
X6430238Y-9369524D01*
X6430238Y-9369524D02*
X6449286Y-9379048D01*
X6449286Y-9379048D02*
X6458810Y-9388571D01*
X6458810Y-9388571D02*
X6468334Y-9407619D01*
X6468334Y-9407619D02*
X6468334Y-9417143D01*
X6468334Y-9417143D02*
X6458810Y-9436190D01*
X6458810Y-9436190D02*
X6449286Y-9445714D01*
X6449286Y-9445714D02*
X6430238Y-9455238D01*
X6430238Y-9455238D02*
X6392143Y-9455238D01*
X6392143Y-9455238D02*
X6373095Y-9464762D01*
X6373095Y-9464762D02*
X6363572Y-9474286D01*
X6363572Y-9474286D02*
X6354048Y-9493333D01*
X6354048Y-9493333D02*
X6354048Y-9531429D01*
X6354048Y-9531429D02*
X6363572Y-9550476D01*
X6363572Y-9550476D02*
X6373095Y-9560000D01*
X6373095Y-9560000D02*
X6392143Y-9569524D01*
X6392143Y-9569524D02*
X6430238Y-9569524D01*
X6430238Y-9569524D02*
X6449286Y-9560000D01*
X6449286Y-9560000D02*
X6458810Y-9550476D01*
X6458810Y-9550476D02*
X6468334Y-9531429D01*
X6468334Y-9531429D02*
X6468334Y-9493333D01*
X6468334Y-9493333D02*
X6458810Y-9474286D01*
X6458810Y-9474286D02*
X6449286Y-9464762D01*
X6449286Y-9464762D02*
X6430238Y-9455238D01*
X6706429Y-9569524D02*
X6706429Y-9369524D01*
X6792143Y-9569524D02*
X6792143Y-9464762D01*
X6792143Y-9464762D02*
X6782619Y-9445714D01*
X6782619Y-9445714D02*
X6763572Y-9436190D01*
X6763572Y-9436190D02*
X6735000Y-9436190D01*
X6735000Y-9436190D02*
X6715953Y-9445714D01*
X6715953Y-9445714D02*
X6706429Y-9455238D01*
X6915953Y-9569524D02*
X6896905Y-9560000D01*
X6896905Y-9560000D02*
X6887381Y-9550476D01*
X6887381Y-9550476D02*
X6877857Y-9531429D01*
X6877857Y-9531429D02*
X6877857Y-9474286D01*
X6877857Y-9474286D02*
X6887381Y-9455238D01*
X6887381Y-9455238D02*
X6896905Y-9445714D01*
X6896905Y-9445714D02*
X6915953Y-9436190D01*
X6915953Y-9436190D02*
X6944524Y-9436190D01*
X6944524Y-9436190D02*
X6963572Y-9445714D01*
X6963572Y-9445714D02*
X6973096Y-9455238D01*
X6973096Y-9455238D02*
X6982619Y-9474286D01*
X6982619Y-9474286D02*
X6982619Y-9531429D01*
X6982619Y-9531429D02*
X6973096Y-9550476D01*
X6973096Y-9550476D02*
X6963572Y-9560000D01*
X6963572Y-9560000D02*
X6944524Y-9569524D01*
X6944524Y-9569524D02*
X6915953Y-9569524D01*
X7096905Y-9569524D02*
X7077857Y-9560000D01*
X7077857Y-9560000D02*
X7068334Y-9540952D01*
X7068334Y-9540952D02*
X7068334Y-9369524D01*
X7249286Y-9560000D02*
X7230238Y-9569524D01*
X7230238Y-9569524D02*
X7192143Y-9569524D01*
X7192143Y-9569524D02*
X7173096Y-9560000D01*
X7173096Y-9560000D02*
X7163572Y-9540952D01*
X7163572Y-9540952D02*
X7163572Y-9464762D01*
X7163572Y-9464762D02*
X7173096Y-9445714D01*
X7173096Y-9445714D02*
X7192143Y-9436190D01*
X7192143Y-9436190D02*
X7230238Y-9436190D01*
X7230238Y-9436190D02*
X7249286Y-9445714D01*
X7249286Y-9445714D02*
X7258810Y-9464762D01*
X7258810Y-9464762D02*
X7258810Y-9483810D01*
X7258810Y-9483810D02*
X7163572Y-9502857D01*
X7335000Y-9560000D02*
X7354048Y-9569524D01*
X7354048Y-9569524D02*
X7392143Y-9569524D01*
X7392143Y-9569524D02*
X7411191Y-9560000D01*
X7411191Y-9560000D02*
X7420715Y-9540952D01*
X7420715Y-9540952D02*
X7420715Y-9531429D01*
X7420715Y-9531429D02*
X7411191Y-9512381D01*
X7411191Y-9512381D02*
X7392143Y-9502857D01*
X7392143Y-9502857D02*
X7363572Y-9502857D01*
X7363572Y-9502857D02*
X7344524Y-9493333D01*
X7344524Y-9493333D02*
X7335000Y-9474286D01*
X7335000Y-9474286D02*
X7335000Y-9464762D01*
X7335000Y-9464762D02*
X7344524Y-9445714D01*
X7344524Y-9445714D02*
X7363572Y-9436190D01*
X7363572Y-9436190D02*
X7392143Y-9436190D01*
X7392143Y-9436190D02*
X7411191Y-9445714D01*
X7487381Y-9645714D02*
X7496905Y-9636190D01*
X7496905Y-9636190D02*
X7515953Y-9607619D01*
X7515953Y-9607619D02*
X7525477Y-9588571D01*
X7525477Y-9588571D02*
X7535000Y-9560000D01*
X7535000Y-9560000D02*
X7544524Y-9512381D01*
X7544524Y-9512381D02*
X7544524Y-9474286D01*
X7544524Y-9474286D02*
X7535000Y-9426667D01*
X7535000Y-9426667D02*
X7525477Y-9398095D01*
X7525477Y-9398095D02*
X7515953Y-9379048D01*
X7515953Y-9379048D02*
X7496905Y-9350476D01*
X7496905Y-9350476D02*
X7487381Y-9340952D01*
D15*
X2483000Y-9793000D02*
X2535000Y-9741000D01*
X2483000Y-9689000D01*
X2431000Y-9741000D01*
X2483000Y-9793000D01*
D11*
X2887381Y-9833524D02*
X2773095Y-9833524D01*
X2830238Y-9833524D02*
X2830238Y-9633524D01*
X2830238Y-9633524D02*
X2811190Y-9662095D01*
X2811190Y-9662095D02*
X2792143Y-9681143D01*
X2792143Y-9681143D02*
X2773095Y-9690667D01*
X2973095Y-9814476D02*
X2982619Y-9824000D01*
X2982619Y-9824000D02*
X2973095Y-9833524D01*
X2973095Y-9833524D02*
X2963571Y-9824000D01*
X2963571Y-9824000D02*
X2973095Y-9814476D01*
X2973095Y-9814476D02*
X2973095Y-9833524D01*
X3106428Y-9633524D02*
X3125476Y-9633524D01*
X3125476Y-9633524D02*
X3144524Y-9643048D01*
X3144524Y-9643048D02*
X3154048Y-9652571D01*
X3154048Y-9652571D02*
X3163571Y-9671619D01*
X3163571Y-9671619D02*
X3173095Y-9709714D01*
X3173095Y-9709714D02*
X3173095Y-9757333D01*
X3173095Y-9757333D02*
X3163571Y-9795429D01*
X3163571Y-9795429D02*
X3154048Y-9814476D01*
X3154048Y-9814476D02*
X3144524Y-9824000D01*
X3144524Y-9824000D02*
X3125476Y-9833524D01*
X3125476Y-9833524D02*
X3106428Y-9833524D01*
X3106428Y-9833524D02*
X3087381Y-9824000D01*
X3087381Y-9824000D02*
X3077857Y-9814476D01*
X3077857Y-9814476D02*
X3068333Y-9795429D01*
X3068333Y-9795429D02*
X3058809Y-9757333D01*
X3058809Y-9757333D02*
X3058809Y-9709714D01*
X3058809Y-9709714D02*
X3068333Y-9671619D01*
X3068333Y-9671619D02*
X3077857Y-9652571D01*
X3077857Y-9652571D02*
X3087381Y-9643048D01*
X3087381Y-9643048D02*
X3106428Y-9633524D01*
X3344524Y-9700190D02*
X3344524Y-9833524D01*
X3296905Y-9624000D02*
X3249286Y-9766857D01*
X3249286Y-9766857D02*
X3373095Y-9766857D01*
X3487381Y-9633524D02*
X3506429Y-9633524D01*
X3506429Y-9633524D02*
X3525476Y-9643048D01*
X3525476Y-9643048D02*
X3535000Y-9652571D01*
X3535000Y-9652571D02*
X3544524Y-9671619D01*
X3544524Y-9671619D02*
X3554048Y-9709714D01*
X3554048Y-9709714D02*
X3554048Y-9757333D01*
X3554048Y-9757333D02*
X3544524Y-9795429D01*
X3544524Y-9795429D02*
X3535000Y-9814476D01*
X3535000Y-9814476D02*
X3525476Y-9824000D01*
X3525476Y-9824000D02*
X3506429Y-9833524D01*
X3506429Y-9833524D02*
X3487381Y-9833524D01*
X3487381Y-9833524D02*
X3468333Y-9824000D01*
X3468333Y-9824000D02*
X3458809Y-9814476D01*
X3458809Y-9814476D02*
X3449286Y-9795429D01*
X3449286Y-9795429D02*
X3439762Y-9757333D01*
X3439762Y-9757333D02*
X3439762Y-9709714D01*
X3439762Y-9709714D02*
X3449286Y-9671619D01*
X3449286Y-9671619D02*
X3458809Y-9652571D01*
X3458809Y-9652571D02*
X3468333Y-9643048D01*
X3468333Y-9643048D02*
X3487381Y-9633524D01*
X3639762Y-9833524D02*
X3639762Y-9700190D01*
X3639762Y-9719238D02*
X3649286Y-9709714D01*
X3649286Y-9709714D02*
X3668333Y-9700190D01*
X3668333Y-9700190D02*
X3696905Y-9700190D01*
X3696905Y-9700190D02*
X3715952Y-9709714D01*
X3715952Y-9709714D02*
X3725476Y-9728762D01*
X3725476Y-9728762D02*
X3725476Y-9833524D01*
X3725476Y-9728762D02*
X3735000Y-9709714D01*
X3735000Y-9709714D02*
X3754048Y-9700190D01*
X3754048Y-9700190D02*
X3782619Y-9700190D01*
X3782619Y-9700190D02*
X3801667Y-9709714D01*
X3801667Y-9709714D02*
X3811190Y-9728762D01*
X3811190Y-9728762D02*
X3811190Y-9833524D01*
X3906429Y-9833524D02*
X3906429Y-9700190D01*
X3906429Y-9719238D02*
X3915952Y-9709714D01*
X3915952Y-9709714D02*
X3935000Y-9700190D01*
X3935000Y-9700190D02*
X3963571Y-9700190D01*
X3963571Y-9700190D02*
X3982619Y-9709714D01*
X3982619Y-9709714D02*
X3992143Y-9728762D01*
X3992143Y-9728762D02*
X3992143Y-9833524D01*
X3992143Y-9728762D02*
X4001667Y-9709714D01*
X4001667Y-9709714D02*
X4020714Y-9700190D01*
X4020714Y-9700190D02*
X4049286Y-9700190D01*
X4049286Y-9700190D02*
X4068333Y-9709714D01*
X4068333Y-9709714D02*
X4077857Y-9728762D01*
X4077857Y-9728762D02*
X4077857Y-9833524D01*
X4468333Y-9624000D02*
X4296905Y-9881143D01*
X4725476Y-9633524D02*
X4744524Y-9633524D01*
X4744524Y-9633524D02*
X4763572Y-9643048D01*
X4763572Y-9643048D02*
X4773095Y-9652571D01*
X4773095Y-9652571D02*
X4782619Y-9671619D01*
X4782619Y-9671619D02*
X4792143Y-9709714D01*
X4792143Y-9709714D02*
X4792143Y-9757333D01*
X4792143Y-9757333D02*
X4782619Y-9795429D01*
X4782619Y-9795429D02*
X4773095Y-9814476D01*
X4773095Y-9814476D02*
X4763572Y-9824000D01*
X4763572Y-9824000D02*
X4744524Y-9833524D01*
X4744524Y-9833524D02*
X4725476Y-9833524D01*
X4725476Y-9833524D02*
X4706429Y-9824000D01*
X4706429Y-9824000D02*
X4696905Y-9814476D01*
X4696905Y-9814476D02*
X4687381Y-9795429D01*
X4687381Y-9795429D02*
X4677857Y-9757333D01*
X4677857Y-9757333D02*
X4677857Y-9709714D01*
X4677857Y-9709714D02*
X4687381Y-9671619D01*
X4687381Y-9671619D02*
X4696905Y-9652571D01*
X4696905Y-9652571D02*
X4706429Y-9643048D01*
X4706429Y-9643048D02*
X4725476Y-9633524D01*
X4877857Y-9814476D02*
X4887381Y-9824000D01*
X4887381Y-9824000D02*
X4877857Y-9833524D01*
X4877857Y-9833524D02*
X4868334Y-9824000D01*
X4868334Y-9824000D02*
X4877857Y-9814476D01*
X4877857Y-9814476D02*
X4877857Y-9833524D01*
X5011191Y-9633524D02*
X5030238Y-9633524D01*
X5030238Y-9633524D02*
X5049286Y-9643048D01*
X5049286Y-9643048D02*
X5058810Y-9652571D01*
X5058810Y-9652571D02*
X5068334Y-9671619D01*
X5068334Y-9671619D02*
X5077857Y-9709714D01*
X5077857Y-9709714D02*
X5077857Y-9757333D01*
X5077857Y-9757333D02*
X5068334Y-9795429D01*
X5068334Y-9795429D02*
X5058810Y-9814476D01*
X5058810Y-9814476D02*
X5049286Y-9824000D01*
X5049286Y-9824000D02*
X5030238Y-9833524D01*
X5030238Y-9833524D02*
X5011191Y-9833524D01*
X5011191Y-9833524D02*
X4992143Y-9824000D01*
X4992143Y-9824000D02*
X4982619Y-9814476D01*
X4982619Y-9814476D02*
X4973095Y-9795429D01*
X4973095Y-9795429D02*
X4963572Y-9757333D01*
X4963572Y-9757333D02*
X4963572Y-9709714D01*
X4963572Y-9709714D02*
X4973095Y-9671619D01*
X4973095Y-9671619D02*
X4982619Y-9652571D01*
X4982619Y-9652571D02*
X4992143Y-9643048D01*
X4992143Y-9643048D02*
X5011191Y-9633524D01*
X5249286Y-9700190D02*
X5249286Y-9833524D01*
X5201667Y-9624000D02*
X5154048Y-9766857D01*
X5154048Y-9766857D02*
X5277857Y-9766857D01*
X5392143Y-9633524D02*
X5411191Y-9633524D01*
X5411191Y-9633524D02*
X5430238Y-9643048D01*
X5430238Y-9643048D02*
X5439762Y-9652571D01*
X5439762Y-9652571D02*
X5449286Y-9671619D01*
X5449286Y-9671619D02*
X5458810Y-9709714D01*
X5458810Y-9709714D02*
X5458810Y-9757333D01*
X5458810Y-9757333D02*
X5449286Y-9795429D01*
X5449286Y-9795429D02*
X5439762Y-9814476D01*
X5439762Y-9814476D02*
X5430238Y-9824000D01*
X5430238Y-9824000D02*
X5411191Y-9833524D01*
X5411191Y-9833524D02*
X5392143Y-9833524D01*
X5392143Y-9833524D02*
X5373095Y-9824000D01*
X5373095Y-9824000D02*
X5363572Y-9814476D01*
X5363572Y-9814476D02*
X5354048Y-9795429D01*
X5354048Y-9795429D02*
X5344524Y-9757333D01*
X5344524Y-9757333D02*
X5344524Y-9709714D01*
X5344524Y-9709714D02*
X5354048Y-9671619D01*
X5354048Y-9671619D02*
X5363572Y-9652571D01*
X5363572Y-9652571D02*
X5373095Y-9643048D01*
X5373095Y-9643048D02*
X5392143Y-9633524D01*
X5554048Y-9833524D02*
X5592143Y-9833524D01*
X5592143Y-9833524D02*
X5611191Y-9824000D01*
X5611191Y-9824000D02*
X5620714Y-9814476D01*
X5620714Y-9814476D02*
X5639762Y-9785905D01*
X5639762Y-9785905D02*
X5649286Y-9747810D01*
X5649286Y-9747810D02*
X5649286Y-9671619D01*
X5649286Y-9671619D02*
X5639762Y-9652571D01*
X5639762Y-9652571D02*
X5630238Y-9643048D01*
X5630238Y-9643048D02*
X5611191Y-9633524D01*
X5611191Y-9633524D02*
X5573095Y-9633524D01*
X5573095Y-9633524D02*
X5554048Y-9643048D01*
X5554048Y-9643048D02*
X5544524Y-9652571D01*
X5544524Y-9652571D02*
X5535000Y-9671619D01*
X5535000Y-9671619D02*
X5535000Y-9719238D01*
X5535000Y-9719238D02*
X5544524Y-9738286D01*
X5544524Y-9738286D02*
X5554048Y-9747810D01*
X5554048Y-9747810D02*
X5573095Y-9757333D01*
X5573095Y-9757333D02*
X5611191Y-9757333D01*
X5611191Y-9757333D02*
X5630238Y-9747810D01*
X5630238Y-9747810D02*
X5639762Y-9738286D01*
X5639762Y-9738286D02*
X5649286Y-9719238D01*
X5725476Y-9633524D02*
X5725476Y-9671619D01*
X5801667Y-9633524D02*
X5801667Y-9671619D01*
X6096905Y-9909714D02*
X6087381Y-9900190D01*
X6087381Y-9900190D02*
X6068334Y-9871619D01*
X6068334Y-9871619D02*
X6058810Y-9852571D01*
X6058810Y-9852571D02*
X6049286Y-9824000D01*
X6049286Y-9824000D02*
X6039762Y-9776381D01*
X6039762Y-9776381D02*
X6039762Y-9738286D01*
X6039762Y-9738286D02*
X6049286Y-9690667D01*
X6049286Y-9690667D02*
X6058810Y-9662095D01*
X6058810Y-9662095D02*
X6068334Y-9643048D01*
X6068334Y-9643048D02*
X6087381Y-9614476D01*
X6087381Y-9614476D02*
X6096905Y-9604952D01*
X6258810Y-9700190D02*
X6258810Y-9833524D01*
X6211191Y-9624000D02*
X6163572Y-9766857D01*
X6163572Y-9766857D02*
X6287381Y-9766857D01*
X6515953Y-9833524D02*
X6515953Y-9633524D01*
X6601667Y-9833524D02*
X6601667Y-9728762D01*
X6601667Y-9728762D02*
X6592143Y-9709714D01*
X6592143Y-9709714D02*
X6573096Y-9700190D01*
X6573096Y-9700190D02*
X6544524Y-9700190D01*
X6544524Y-9700190D02*
X6525476Y-9709714D01*
X6525476Y-9709714D02*
X6515953Y-9719238D01*
X6725476Y-9833524D02*
X6706429Y-9824000D01*
X6706429Y-9824000D02*
X6696905Y-9814476D01*
X6696905Y-9814476D02*
X6687381Y-9795429D01*
X6687381Y-9795429D02*
X6687381Y-9738286D01*
X6687381Y-9738286D02*
X6696905Y-9719238D01*
X6696905Y-9719238D02*
X6706429Y-9709714D01*
X6706429Y-9709714D02*
X6725476Y-9700190D01*
X6725476Y-9700190D02*
X6754048Y-9700190D01*
X6754048Y-9700190D02*
X6773096Y-9709714D01*
X6773096Y-9709714D02*
X6782619Y-9719238D01*
X6782619Y-9719238D02*
X6792143Y-9738286D01*
X6792143Y-9738286D02*
X6792143Y-9795429D01*
X6792143Y-9795429D02*
X6782619Y-9814476D01*
X6782619Y-9814476D02*
X6773096Y-9824000D01*
X6773096Y-9824000D02*
X6754048Y-9833524D01*
X6754048Y-9833524D02*
X6725476Y-9833524D01*
X6906429Y-9833524D02*
X6887381Y-9824000D01*
X6887381Y-9824000D02*
X6877857Y-9804952D01*
X6877857Y-9804952D02*
X6877857Y-9633524D01*
X7058810Y-9824000D02*
X7039762Y-9833524D01*
X7039762Y-9833524D02*
X7001667Y-9833524D01*
X7001667Y-9833524D02*
X6982619Y-9824000D01*
X6982619Y-9824000D02*
X6973096Y-9804952D01*
X6973096Y-9804952D02*
X6973096Y-9728762D01*
X6973096Y-9728762D02*
X6982619Y-9709714D01*
X6982619Y-9709714D02*
X7001667Y-9700190D01*
X7001667Y-9700190D02*
X7039762Y-9700190D01*
X7039762Y-9700190D02*
X7058810Y-9709714D01*
X7058810Y-9709714D02*
X7068334Y-9728762D01*
X7068334Y-9728762D02*
X7068334Y-9747810D01*
X7068334Y-9747810D02*
X6973096Y-9766857D01*
X7144524Y-9824000D02*
X7163572Y-9833524D01*
X7163572Y-9833524D02*
X7201667Y-9833524D01*
X7201667Y-9833524D02*
X7220715Y-9824000D01*
X7220715Y-9824000D02*
X7230238Y-9804952D01*
X7230238Y-9804952D02*
X7230238Y-9795429D01*
X7230238Y-9795429D02*
X7220715Y-9776381D01*
X7220715Y-9776381D02*
X7201667Y-9766857D01*
X7201667Y-9766857D02*
X7173096Y-9766857D01*
X7173096Y-9766857D02*
X7154048Y-9757333D01*
X7154048Y-9757333D02*
X7144524Y-9738286D01*
X7144524Y-9738286D02*
X7144524Y-9728762D01*
X7144524Y-9728762D02*
X7154048Y-9709714D01*
X7154048Y-9709714D02*
X7173096Y-9700190D01*
X7173096Y-9700190D02*
X7201667Y-9700190D01*
X7201667Y-9700190D02*
X7220715Y-9709714D01*
X7296905Y-9909714D02*
X7306429Y-9900190D01*
X7306429Y-9900190D02*
X7325477Y-9871619D01*
X7325477Y-9871619D02*
X7335000Y-9852571D01*
X7335000Y-9852571D02*
X7344524Y-9824000D01*
X7344524Y-9824000D02*
X7354048Y-9776381D01*
X7354048Y-9776381D02*
X7354048Y-9738286D01*
X7354048Y-9738286D02*
X7344524Y-9690667D01*
X7344524Y-9690667D02*
X7335000Y-9662095D01*
X7335000Y-9662095D02*
X7325477Y-9643048D01*
X7325477Y-9643048D02*
X7306429Y-9614476D01*
X7306429Y-9614476D02*
X7296905Y-9604952D01*
D16*
X2405000Y-9940000D02*
X2535000Y-10070000D01*
X2535000Y-9940000D02*
X2405000Y-10070000D01*
X2535000Y-10005000D02*
G75*
G03*
X2535000Y-10005000I-65000J0D01*
G01*
D11*
X2887381Y-10097524D02*
X2773095Y-10097524D01*
X2830238Y-10097524D02*
X2830238Y-9897524D01*
X2830238Y-9897524D02*
X2811190Y-9926095D01*
X2811190Y-9926095D02*
X2792143Y-9945143D01*
X2792143Y-9945143D02*
X2773095Y-9954667D01*
X2973095Y-10078476D02*
X2982619Y-10088000D01*
X2982619Y-10088000D02*
X2973095Y-10097524D01*
X2973095Y-10097524D02*
X2963571Y-10088000D01*
X2963571Y-10088000D02*
X2973095Y-10078476D01*
X2973095Y-10078476D02*
X2973095Y-10097524D01*
X3049286Y-9897524D02*
X3173095Y-9897524D01*
X3173095Y-9897524D02*
X3106428Y-9973714D01*
X3106428Y-9973714D02*
X3135000Y-9973714D01*
X3135000Y-9973714D02*
X3154048Y-9983238D01*
X3154048Y-9983238D02*
X3163571Y-9992762D01*
X3163571Y-9992762D02*
X3173095Y-10011810D01*
X3173095Y-10011810D02*
X3173095Y-10059429D01*
X3173095Y-10059429D02*
X3163571Y-10078476D01*
X3163571Y-10078476D02*
X3154048Y-10088000D01*
X3154048Y-10088000D02*
X3135000Y-10097524D01*
X3135000Y-10097524D02*
X3077857Y-10097524D01*
X3077857Y-10097524D02*
X3058809Y-10088000D01*
X3058809Y-10088000D02*
X3049286Y-10078476D01*
X3296905Y-9897524D02*
X3315952Y-9897524D01*
X3315952Y-9897524D02*
X3335000Y-9907048D01*
X3335000Y-9907048D02*
X3344524Y-9916571D01*
X3344524Y-9916571D02*
X3354048Y-9935619D01*
X3354048Y-9935619D02*
X3363571Y-9973714D01*
X3363571Y-9973714D02*
X3363571Y-10021333D01*
X3363571Y-10021333D02*
X3354048Y-10059429D01*
X3354048Y-10059429D02*
X3344524Y-10078476D01*
X3344524Y-10078476D02*
X3335000Y-10088000D01*
X3335000Y-10088000D02*
X3315952Y-10097524D01*
X3315952Y-10097524D02*
X3296905Y-10097524D01*
X3296905Y-10097524D02*
X3277857Y-10088000D01*
X3277857Y-10088000D02*
X3268333Y-10078476D01*
X3268333Y-10078476D02*
X3258809Y-10059429D01*
X3258809Y-10059429D02*
X3249286Y-10021333D01*
X3249286Y-10021333D02*
X3249286Y-9973714D01*
X3249286Y-9973714D02*
X3258809Y-9935619D01*
X3258809Y-9935619D02*
X3268333Y-9916571D01*
X3268333Y-9916571D02*
X3277857Y-9907048D01*
X3277857Y-9907048D02*
X3296905Y-9897524D01*
X3487381Y-9897524D02*
X3506429Y-9897524D01*
X3506429Y-9897524D02*
X3525476Y-9907048D01*
X3525476Y-9907048D02*
X3535000Y-9916571D01*
X3535000Y-9916571D02*
X3544524Y-9935619D01*
X3544524Y-9935619D02*
X3554048Y-9973714D01*
X3554048Y-9973714D02*
X3554048Y-10021333D01*
X3554048Y-10021333D02*
X3544524Y-10059429D01*
X3544524Y-10059429D02*
X3535000Y-10078476D01*
X3535000Y-10078476D02*
X3525476Y-10088000D01*
X3525476Y-10088000D02*
X3506429Y-10097524D01*
X3506429Y-10097524D02*
X3487381Y-10097524D01*
X3487381Y-10097524D02*
X3468333Y-10088000D01*
X3468333Y-10088000D02*
X3458809Y-10078476D01*
X3458809Y-10078476D02*
X3449286Y-10059429D01*
X3449286Y-10059429D02*
X3439762Y-10021333D01*
X3439762Y-10021333D02*
X3439762Y-9973714D01*
X3439762Y-9973714D02*
X3449286Y-9935619D01*
X3449286Y-9935619D02*
X3458809Y-9916571D01*
X3458809Y-9916571D02*
X3468333Y-9907048D01*
X3468333Y-9907048D02*
X3487381Y-9897524D01*
X3639762Y-10097524D02*
X3639762Y-9964190D01*
X3639762Y-9983238D02*
X3649286Y-9973714D01*
X3649286Y-9973714D02*
X3668333Y-9964190D01*
X3668333Y-9964190D02*
X3696905Y-9964190D01*
X3696905Y-9964190D02*
X3715952Y-9973714D01*
X3715952Y-9973714D02*
X3725476Y-9992762D01*
X3725476Y-9992762D02*
X3725476Y-10097524D01*
X3725476Y-9992762D02*
X3735000Y-9973714D01*
X3735000Y-9973714D02*
X3754048Y-9964190D01*
X3754048Y-9964190D02*
X3782619Y-9964190D01*
X3782619Y-9964190D02*
X3801667Y-9973714D01*
X3801667Y-9973714D02*
X3811190Y-9992762D01*
X3811190Y-9992762D02*
X3811190Y-10097524D01*
X3906429Y-10097524D02*
X3906429Y-9964190D01*
X3906429Y-9983238D02*
X3915952Y-9973714D01*
X3915952Y-9973714D02*
X3935000Y-9964190D01*
X3935000Y-9964190D02*
X3963571Y-9964190D01*
X3963571Y-9964190D02*
X3982619Y-9973714D01*
X3982619Y-9973714D02*
X3992143Y-9992762D01*
X3992143Y-9992762D02*
X3992143Y-10097524D01*
X3992143Y-9992762D02*
X4001667Y-9973714D01*
X4001667Y-9973714D02*
X4020714Y-9964190D01*
X4020714Y-9964190D02*
X4049286Y-9964190D01*
X4049286Y-9964190D02*
X4068333Y-9973714D01*
X4068333Y-9973714D02*
X4077857Y-9992762D01*
X4077857Y-9992762D02*
X4077857Y-10097524D01*
X4468333Y-9888000D02*
X4296905Y-10145143D01*
X4725476Y-9897524D02*
X4744524Y-9897524D01*
X4744524Y-9897524D02*
X4763572Y-9907048D01*
X4763572Y-9907048D02*
X4773095Y-9916571D01*
X4773095Y-9916571D02*
X4782619Y-9935619D01*
X4782619Y-9935619D02*
X4792143Y-9973714D01*
X4792143Y-9973714D02*
X4792143Y-10021333D01*
X4792143Y-10021333D02*
X4782619Y-10059429D01*
X4782619Y-10059429D02*
X4773095Y-10078476D01*
X4773095Y-10078476D02*
X4763572Y-10088000D01*
X4763572Y-10088000D02*
X4744524Y-10097524D01*
X4744524Y-10097524D02*
X4725476Y-10097524D01*
X4725476Y-10097524D02*
X4706429Y-10088000D01*
X4706429Y-10088000D02*
X4696905Y-10078476D01*
X4696905Y-10078476D02*
X4687381Y-10059429D01*
X4687381Y-10059429D02*
X4677857Y-10021333D01*
X4677857Y-10021333D02*
X4677857Y-9973714D01*
X4677857Y-9973714D02*
X4687381Y-9935619D01*
X4687381Y-9935619D02*
X4696905Y-9916571D01*
X4696905Y-9916571D02*
X4706429Y-9907048D01*
X4706429Y-9907048D02*
X4725476Y-9897524D01*
X4877857Y-10078476D02*
X4887381Y-10088000D01*
X4887381Y-10088000D02*
X4877857Y-10097524D01*
X4877857Y-10097524D02*
X4868334Y-10088000D01*
X4868334Y-10088000D02*
X4877857Y-10078476D01*
X4877857Y-10078476D02*
X4877857Y-10097524D01*
X5011191Y-9897524D02*
X5030238Y-9897524D01*
X5030238Y-9897524D02*
X5049286Y-9907048D01*
X5049286Y-9907048D02*
X5058810Y-9916571D01*
X5058810Y-9916571D02*
X5068334Y-9935619D01*
X5068334Y-9935619D02*
X5077857Y-9973714D01*
X5077857Y-9973714D02*
X5077857Y-10021333D01*
X5077857Y-10021333D02*
X5068334Y-10059429D01*
X5068334Y-10059429D02*
X5058810Y-10078476D01*
X5058810Y-10078476D02*
X5049286Y-10088000D01*
X5049286Y-10088000D02*
X5030238Y-10097524D01*
X5030238Y-10097524D02*
X5011191Y-10097524D01*
X5011191Y-10097524D02*
X4992143Y-10088000D01*
X4992143Y-10088000D02*
X4982619Y-10078476D01*
X4982619Y-10078476D02*
X4973095Y-10059429D01*
X4973095Y-10059429D02*
X4963572Y-10021333D01*
X4963572Y-10021333D02*
X4963572Y-9973714D01*
X4963572Y-9973714D02*
X4973095Y-9935619D01*
X4973095Y-9935619D02*
X4982619Y-9916571D01*
X4982619Y-9916571D02*
X4992143Y-9907048D01*
X4992143Y-9907048D02*
X5011191Y-9897524D01*
X5258810Y-9897524D02*
X5163572Y-9897524D01*
X5163572Y-9897524D02*
X5154048Y-9992762D01*
X5154048Y-9992762D02*
X5163572Y-9983238D01*
X5163572Y-9983238D02*
X5182619Y-9973714D01*
X5182619Y-9973714D02*
X5230238Y-9973714D01*
X5230238Y-9973714D02*
X5249286Y-9983238D01*
X5249286Y-9983238D02*
X5258810Y-9992762D01*
X5258810Y-9992762D02*
X5268334Y-10011810D01*
X5268334Y-10011810D02*
X5268334Y-10059429D01*
X5268334Y-10059429D02*
X5258810Y-10078476D01*
X5258810Y-10078476D02*
X5249286Y-10088000D01*
X5249286Y-10088000D02*
X5230238Y-10097524D01*
X5230238Y-10097524D02*
X5182619Y-10097524D01*
X5182619Y-10097524D02*
X5163572Y-10088000D01*
X5163572Y-10088000D02*
X5154048Y-10078476D01*
X5458810Y-10097524D02*
X5344524Y-10097524D01*
X5401667Y-10097524D02*
X5401667Y-9897524D01*
X5401667Y-9897524D02*
X5382619Y-9926095D01*
X5382619Y-9926095D02*
X5363572Y-9945143D01*
X5363572Y-9945143D02*
X5344524Y-9954667D01*
X5535000Y-9916571D02*
X5544524Y-9907048D01*
X5544524Y-9907048D02*
X5563572Y-9897524D01*
X5563572Y-9897524D02*
X5611191Y-9897524D01*
X5611191Y-9897524D02*
X5630238Y-9907048D01*
X5630238Y-9907048D02*
X5639762Y-9916571D01*
X5639762Y-9916571D02*
X5649286Y-9935619D01*
X5649286Y-9935619D02*
X5649286Y-9954667D01*
X5649286Y-9954667D02*
X5639762Y-9983238D01*
X5639762Y-9983238D02*
X5525476Y-10097524D01*
X5525476Y-10097524D02*
X5649286Y-10097524D01*
X5725476Y-9897524D02*
X5725476Y-9935619D01*
X5801667Y-9897524D02*
X5801667Y-9935619D01*
X6096905Y-10173714D02*
X6087381Y-10164190D01*
X6087381Y-10164190D02*
X6068334Y-10135619D01*
X6068334Y-10135619D02*
X6058810Y-10116571D01*
X6058810Y-10116571D02*
X6049286Y-10088000D01*
X6049286Y-10088000D02*
X6039762Y-10040381D01*
X6039762Y-10040381D02*
X6039762Y-10002286D01*
X6039762Y-10002286D02*
X6049286Y-9954667D01*
X6049286Y-9954667D02*
X6058810Y-9926095D01*
X6058810Y-9926095D02*
X6068334Y-9907048D01*
X6068334Y-9907048D02*
X6087381Y-9878476D01*
X6087381Y-9878476D02*
X6096905Y-9868952D01*
X6277857Y-10097524D02*
X6163572Y-10097524D01*
X6220714Y-10097524D02*
X6220714Y-9897524D01*
X6220714Y-9897524D02*
X6201667Y-9926095D01*
X6201667Y-9926095D02*
X6182619Y-9945143D01*
X6182619Y-9945143D02*
X6163572Y-9954667D01*
X6449286Y-9964190D02*
X6449286Y-10097524D01*
X6401667Y-9888000D02*
X6354048Y-10030857D01*
X6354048Y-10030857D02*
X6477857Y-10030857D01*
X6706429Y-10097524D02*
X6706429Y-9897524D01*
X6792143Y-10097524D02*
X6792143Y-9992762D01*
X6792143Y-9992762D02*
X6782619Y-9973714D01*
X6782619Y-9973714D02*
X6763572Y-9964190D01*
X6763572Y-9964190D02*
X6735000Y-9964190D01*
X6735000Y-9964190D02*
X6715953Y-9973714D01*
X6715953Y-9973714D02*
X6706429Y-9983238D01*
X6915953Y-10097524D02*
X6896905Y-10088000D01*
X6896905Y-10088000D02*
X6887381Y-10078476D01*
X6887381Y-10078476D02*
X6877857Y-10059429D01*
X6877857Y-10059429D02*
X6877857Y-10002286D01*
X6877857Y-10002286D02*
X6887381Y-9983238D01*
X6887381Y-9983238D02*
X6896905Y-9973714D01*
X6896905Y-9973714D02*
X6915953Y-9964190D01*
X6915953Y-9964190D02*
X6944524Y-9964190D01*
X6944524Y-9964190D02*
X6963572Y-9973714D01*
X6963572Y-9973714D02*
X6973096Y-9983238D01*
X6973096Y-9983238D02*
X6982619Y-10002286D01*
X6982619Y-10002286D02*
X6982619Y-10059429D01*
X6982619Y-10059429D02*
X6973096Y-10078476D01*
X6973096Y-10078476D02*
X6963572Y-10088000D01*
X6963572Y-10088000D02*
X6944524Y-10097524D01*
X6944524Y-10097524D02*
X6915953Y-10097524D01*
X7096905Y-10097524D02*
X7077857Y-10088000D01*
X7077857Y-10088000D02*
X7068334Y-10068952D01*
X7068334Y-10068952D02*
X7068334Y-9897524D01*
X7249286Y-10088000D02*
X7230238Y-10097524D01*
X7230238Y-10097524D02*
X7192143Y-10097524D01*
X7192143Y-10097524D02*
X7173096Y-10088000D01*
X7173096Y-10088000D02*
X7163572Y-10068952D01*
X7163572Y-10068952D02*
X7163572Y-9992762D01*
X7163572Y-9992762D02*
X7173096Y-9973714D01*
X7173096Y-9973714D02*
X7192143Y-9964190D01*
X7192143Y-9964190D02*
X7230238Y-9964190D01*
X7230238Y-9964190D02*
X7249286Y-9973714D01*
X7249286Y-9973714D02*
X7258810Y-9992762D01*
X7258810Y-9992762D02*
X7258810Y-10011810D01*
X7258810Y-10011810D02*
X7163572Y-10030857D01*
X7335000Y-10088000D02*
X7354048Y-10097524D01*
X7354048Y-10097524D02*
X7392143Y-10097524D01*
X7392143Y-10097524D02*
X7411191Y-10088000D01*
X7411191Y-10088000D02*
X7420715Y-10068952D01*
X7420715Y-10068952D02*
X7420715Y-10059429D01*
X7420715Y-10059429D02*
X7411191Y-10040381D01*
X7411191Y-10040381D02*
X7392143Y-10030857D01*
X7392143Y-10030857D02*
X7363572Y-10030857D01*
X7363572Y-10030857D02*
X7344524Y-10021333D01*
X7344524Y-10021333D02*
X7335000Y-10002286D01*
X7335000Y-10002286D02*
X7335000Y-9992762D01*
X7335000Y-9992762D02*
X7344524Y-9973714D01*
X7344524Y-9973714D02*
X7363572Y-9964190D01*
X7363572Y-9964190D02*
X7392143Y-9964190D01*
X7392143Y-9964190D02*
X7411191Y-9973714D01*
X7487381Y-10173714D02*
X7496905Y-10164190D01*
X7496905Y-10164190D02*
X7515953Y-10135619D01*
X7515953Y-10135619D02*
X7525477Y-10116571D01*
X7525477Y-10116571D02*
X7535000Y-10088000D01*
X7535000Y-10088000D02*
X7544524Y-10040381D01*
X7544524Y-10040381D02*
X7544524Y-10002286D01*
X7544524Y-10002286D02*
X7535000Y-9954667D01*
X7535000Y-9954667D02*
X7525477Y-9926095D01*
X7525477Y-9926095D02*
X7515953Y-9907048D01*
X7515953Y-9907048D02*
X7496905Y-9878476D01*
X7496905Y-9878476D02*
X7487381Y-9868952D01*
X2335000Y-10169000D02*
X2535000Y-10369000D01*
X2535000Y-10169000D02*
X2335000Y-10369000D01*
X2435000Y-10169000D02*
X2435000Y-10369000D01*
X2335000Y-10269000D02*
X2535000Y-10269000D01*
X2763571Y-10161524D02*
X2887381Y-10161524D01*
X2887381Y-10161524D02*
X2820714Y-10237714D01*
X2820714Y-10237714D02*
X2849286Y-10237714D01*
X2849286Y-10237714D02*
X2868333Y-10247238D01*
X2868333Y-10247238D02*
X2877857Y-10256762D01*
X2877857Y-10256762D02*
X2887381Y-10275810D01*
X2887381Y-10275810D02*
X2887381Y-10323429D01*
X2887381Y-10323429D02*
X2877857Y-10342476D01*
X2877857Y-10342476D02*
X2868333Y-10352000D01*
X2868333Y-10352000D02*
X2849286Y-10361524D01*
X2849286Y-10361524D02*
X2792143Y-10361524D01*
X2792143Y-10361524D02*
X2773095Y-10352000D01*
X2773095Y-10352000D02*
X2763571Y-10342476D01*
X2973095Y-10342476D02*
X2982619Y-10352000D01*
X2982619Y-10352000D02*
X2973095Y-10361524D01*
X2973095Y-10361524D02*
X2963571Y-10352000D01*
X2963571Y-10352000D02*
X2973095Y-10342476D01*
X2973095Y-10342476D02*
X2973095Y-10361524D01*
X3173095Y-10361524D02*
X3058809Y-10361524D01*
X3115952Y-10361524D02*
X3115952Y-10161524D01*
X3115952Y-10161524D02*
X3096905Y-10190095D01*
X3096905Y-10190095D02*
X3077857Y-10209143D01*
X3077857Y-10209143D02*
X3058809Y-10218667D01*
X3296905Y-10161524D02*
X3315952Y-10161524D01*
X3315952Y-10161524D02*
X3335000Y-10171048D01*
X3335000Y-10171048D02*
X3344524Y-10180571D01*
X3344524Y-10180571D02*
X3354048Y-10199619D01*
X3354048Y-10199619D02*
X3363571Y-10237714D01*
X3363571Y-10237714D02*
X3363571Y-10285333D01*
X3363571Y-10285333D02*
X3354048Y-10323429D01*
X3354048Y-10323429D02*
X3344524Y-10342476D01*
X3344524Y-10342476D02*
X3335000Y-10352000D01*
X3335000Y-10352000D02*
X3315952Y-10361524D01*
X3315952Y-10361524D02*
X3296905Y-10361524D01*
X3296905Y-10361524D02*
X3277857Y-10352000D01*
X3277857Y-10352000D02*
X3268333Y-10342476D01*
X3268333Y-10342476D02*
X3258809Y-10323429D01*
X3258809Y-10323429D02*
X3249286Y-10285333D01*
X3249286Y-10285333D02*
X3249286Y-10237714D01*
X3249286Y-10237714D02*
X3258809Y-10199619D01*
X3258809Y-10199619D02*
X3268333Y-10180571D01*
X3268333Y-10180571D02*
X3277857Y-10171048D01*
X3277857Y-10171048D02*
X3296905Y-10161524D01*
X3487381Y-10161524D02*
X3506429Y-10161524D01*
X3506429Y-10161524D02*
X3525476Y-10171048D01*
X3525476Y-10171048D02*
X3535000Y-10180571D01*
X3535000Y-10180571D02*
X3544524Y-10199619D01*
X3544524Y-10199619D02*
X3554048Y-10237714D01*
X3554048Y-10237714D02*
X3554048Y-10285333D01*
X3554048Y-10285333D02*
X3544524Y-10323429D01*
X3544524Y-10323429D02*
X3535000Y-10342476D01*
X3535000Y-10342476D02*
X3525476Y-10352000D01*
X3525476Y-10352000D02*
X3506429Y-10361524D01*
X3506429Y-10361524D02*
X3487381Y-10361524D01*
X3487381Y-10361524D02*
X3468333Y-10352000D01*
X3468333Y-10352000D02*
X3458809Y-10342476D01*
X3458809Y-10342476D02*
X3449286Y-10323429D01*
X3449286Y-10323429D02*
X3439762Y-10285333D01*
X3439762Y-10285333D02*
X3439762Y-10237714D01*
X3439762Y-10237714D02*
X3449286Y-10199619D01*
X3449286Y-10199619D02*
X3458809Y-10180571D01*
X3458809Y-10180571D02*
X3468333Y-10171048D01*
X3468333Y-10171048D02*
X3487381Y-10161524D01*
X3639762Y-10361524D02*
X3639762Y-10228190D01*
X3639762Y-10247238D02*
X3649286Y-10237714D01*
X3649286Y-10237714D02*
X3668333Y-10228190D01*
X3668333Y-10228190D02*
X3696905Y-10228190D01*
X3696905Y-10228190D02*
X3715952Y-10237714D01*
X3715952Y-10237714D02*
X3725476Y-10256762D01*
X3725476Y-10256762D02*
X3725476Y-10361524D01*
X3725476Y-10256762D02*
X3735000Y-10237714D01*
X3735000Y-10237714D02*
X3754048Y-10228190D01*
X3754048Y-10228190D02*
X3782619Y-10228190D01*
X3782619Y-10228190D02*
X3801667Y-10237714D01*
X3801667Y-10237714D02*
X3811190Y-10256762D01*
X3811190Y-10256762D02*
X3811190Y-10361524D01*
X3906429Y-10361524D02*
X3906429Y-10228190D01*
X3906429Y-10247238D02*
X3915952Y-10237714D01*
X3915952Y-10237714D02*
X3935000Y-10228190D01*
X3935000Y-10228190D02*
X3963571Y-10228190D01*
X3963571Y-10228190D02*
X3982619Y-10237714D01*
X3982619Y-10237714D02*
X3992143Y-10256762D01*
X3992143Y-10256762D02*
X3992143Y-10361524D01*
X3992143Y-10256762D02*
X4001667Y-10237714D01*
X4001667Y-10237714D02*
X4020714Y-10228190D01*
X4020714Y-10228190D02*
X4049286Y-10228190D01*
X4049286Y-10228190D02*
X4068333Y-10237714D01*
X4068333Y-10237714D02*
X4077857Y-10256762D01*
X4077857Y-10256762D02*
X4077857Y-10361524D01*
X4468333Y-10152000D02*
X4296905Y-10409143D01*
X4725476Y-10161524D02*
X4744524Y-10161524D01*
X4744524Y-10161524D02*
X4763572Y-10171048D01*
X4763572Y-10171048D02*
X4773095Y-10180571D01*
X4773095Y-10180571D02*
X4782619Y-10199619D01*
X4782619Y-10199619D02*
X4792143Y-10237714D01*
X4792143Y-10237714D02*
X4792143Y-10285333D01*
X4792143Y-10285333D02*
X4782619Y-10323429D01*
X4782619Y-10323429D02*
X4773095Y-10342476D01*
X4773095Y-10342476D02*
X4763572Y-10352000D01*
X4763572Y-10352000D02*
X4744524Y-10361524D01*
X4744524Y-10361524D02*
X4725476Y-10361524D01*
X4725476Y-10361524D02*
X4706429Y-10352000D01*
X4706429Y-10352000D02*
X4696905Y-10342476D01*
X4696905Y-10342476D02*
X4687381Y-10323429D01*
X4687381Y-10323429D02*
X4677857Y-10285333D01*
X4677857Y-10285333D02*
X4677857Y-10237714D01*
X4677857Y-10237714D02*
X4687381Y-10199619D01*
X4687381Y-10199619D02*
X4696905Y-10180571D01*
X4696905Y-10180571D02*
X4706429Y-10171048D01*
X4706429Y-10171048D02*
X4725476Y-10161524D01*
X4877857Y-10342476D02*
X4887381Y-10352000D01*
X4887381Y-10352000D02*
X4877857Y-10361524D01*
X4877857Y-10361524D02*
X4868334Y-10352000D01*
X4868334Y-10352000D02*
X4877857Y-10342476D01*
X4877857Y-10342476D02*
X4877857Y-10361524D01*
X5077857Y-10361524D02*
X4963572Y-10361524D01*
X5020714Y-10361524D02*
X5020714Y-10161524D01*
X5020714Y-10161524D02*
X5001667Y-10190095D01*
X5001667Y-10190095D02*
X4982619Y-10209143D01*
X4982619Y-10209143D02*
X4963572Y-10218667D01*
X5154048Y-10180571D02*
X5163572Y-10171048D01*
X5163572Y-10171048D02*
X5182619Y-10161524D01*
X5182619Y-10161524D02*
X5230238Y-10161524D01*
X5230238Y-10161524D02*
X5249286Y-10171048D01*
X5249286Y-10171048D02*
X5258810Y-10180571D01*
X5258810Y-10180571D02*
X5268334Y-10199619D01*
X5268334Y-10199619D02*
X5268334Y-10218667D01*
X5268334Y-10218667D02*
X5258810Y-10247238D01*
X5258810Y-10247238D02*
X5144524Y-10361524D01*
X5144524Y-10361524D02*
X5268334Y-10361524D01*
X5344524Y-10180571D02*
X5354048Y-10171048D01*
X5354048Y-10171048D02*
X5373095Y-10161524D01*
X5373095Y-10161524D02*
X5420715Y-10161524D01*
X5420715Y-10161524D02*
X5439762Y-10171048D01*
X5439762Y-10171048D02*
X5449286Y-10180571D01*
X5449286Y-10180571D02*
X5458810Y-10199619D01*
X5458810Y-10199619D02*
X5458810Y-10218667D01*
X5458810Y-10218667D02*
X5449286Y-10247238D01*
X5449286Y-10247238D02*
X5335000Y-10361524D01*
X5335000Y-10361524D02*
X5458810Y-10361524D01*
X5582619Y-10161524D02*
X5601667Y-10161524D01*
X5601667Y-10161524D02*
X5620714Y-10171048D01*
X5620714Y-10171048D02*
X5630238Y-10180571D01*
X5630238Y-10180571D02*
X5639762Y-10199619D01*
X5639762Y-10199619D02*
X5649286Y-10237714D01*
X5649286Y-10237714D02*
X5649286Y-10285333D01*
X5649286Y-10285333D02*
X5639762Y-10323429D01*
X5639762Y-10323429D02*
X5630238Y-10342476D01*
X5630238Y-10342476D02*
X5620714Y-10352000D01*
X5620714Y-10352000D02*
X5601667Y-10361524D01*
X5601667Y-10361524D02*
X5582619Y-10361524D01*
X5582619Y-10361524D02*
X5563572Y-10352000D01*
X5563572Y-10352000D02*
X5554048Y-10342476D01*
X5554048Y-10342476D02*
X5544524Y-10323429D01*
X5544524Y-10323429D02*
X5535000Y-10285333D01*
X5535000Y-10285333D02*
X5535000Y-10237714D01*
X5535000Y-10237714D02*
X5544524Y-10199619D01*
X5544524Y-10199619D02*
X5554048Y-10180571D01*
X5554048Y-10180571D02*
X5563572Y-10171048D01*
X5563572Y-10171048D02*
X5582619Y-10161524D01*
X5725476Y-10161524D02*
X5725476Y-10199619D01*
X5801667Y-10161524D02*
X5801667Y-10199619D01*
X6096905Y-10437714D02*
X6087381Y-10428190D01*
X6087381Y-10428190D02*
X6068334Y-10399619D01*
X6068334Y-10399619D02*
X6058810Y-10380571D01*
X6058810Y-10380571D02*
X6049286Y-10352000D01*
X6049286Y-10352000D02*
X6039762Y-10304381D01*
X6039762Y-10304381D02*
X6039762Y-10266286D01*
X6039762Y-10266286D02*
X6049286Y-10218667D01*
X6049286Y-10218667D02*
X6058810Y-10190095D01*
X6058810Y-10190095D02*
X6068334Y-10171048D01*
X6068334Y-10171048D02*
X6087381Y-10142476D01*
X6087381Y-10142476D02*
X6096905Y-10132952D01*
X6163572Y-10180571D02*
X6173095Y-10171048D01*
X6173095Y-10171048D02*
X6192143Y-10161524D01*
X6192143Y-10161524D02*
X6239762Y-10161524D01*
X6239762Y-10161524D02*
X6258810Y-10171048D01*
X6258810Y-10171048D02*
X6268334Y-10180571D01*
X6268334Y-10180571D02*
X6277857Y-10199619D01*
X6277857Y-10199619D02*
X6277857Y-10218667D01*
X6277857Y-10218667D02*
X6268334Y-10247238D01*
X6268334Y-10247238D02*
X6154048Y-10361524D01*
X6154048Y-10361524D02*
X6277857Y-10361524D01*
X6515953Y-10361524D02*
X6515953Y-10161524D01*
X6601667Y-10361524D02*
X6601667Y-10256762D01*
X6601667Y-10256762D02*
X6592143Y-10237714D01*
X6592143Y-10237714D02*
X6573096Y-10228190D01*
X6573096Y-10228190D02*
X6544524Y-10228190D01*
X6544524Y-10228190D02*
X6525476Y-10237714D01*
X6525476Y-10237714D02*
X6515953Y-10247238D01*
X6725476Y-10361524D02*
X6706429Y-10352000D01*
X6706429Y-10352000D02*
X6696905Y-10342476D01*
X6696905Y-10342476D02*
X6687381Y-10323429D01*
X6687381Y-10323429D02*
X6687381Y-10266286D01*
X6687381Y-10266286D02*
X6696905Y-10247238D01*
X6696905Y-10247238D02*
X6706429Y-10237714D01*
X6706429Y-10237714D02*
X6725476Y-10228190D01*
X6725476Y-10228190D02*
X6754048Y-10228190D01*
X6754048Y-10228190D02*
X6773096Y-10237714D01*
X6773096Y-10237714D02*
X6782619Y-10247238D01*
X6782619Y-10247238D02*
X6792143Y-10266286D01*
X6792143Y-10266286D02*
X6792143Y-10323429D01*
X6792143Y-10323429D02*
X6782619Y-10342476D01*
X6782619Y-10342476D02*
X6773096Y-10352000D01*
X6773096Y-10352000D02*
X6754048Y-10361524D01*
X6754048Y-10361524D02*
X6725476Y-10361524D01*
X6906429Y-10361524D02*
X6887381Y-10352000D01*
X6887381Y-10352000D02*
X6877857Y-10332952D01*
X6877857Y-10332952D02*
X6877857Y-10161524D01*
X7058810Y-10352000D02*
X7039762Y-10361524D01*
X7039762Y-10361524D02*
X7001667Y-10361524D01*
X7001667Y-10361524D02*
X6982619Y-10352000D01*
X6982619Y-10352000D02*
X6973096Y-10332952D01*
X6973096Y-10332952D02*
X6973096Y-10256762D01*
X6973096Y-10256762D02*
X6982619Y-10237714D01*
X6982619Y-10237714D02*
X7001667Y-10228190D01*
X7001667Y-10228190D02*
X7039762Y-10228190D01*
X7039762Y-10228190D02*
X7058810Y-10237714D01*
X7058810Y-10237714D02*
X7068334Y-10256762D01*
X7068334Y-10256762D02*
X7068334Y-10275810D01*
X7068334Y-10275810D02*
X6973096Y-10294857D01*
X7144524Y-10352000D02*
X7163572Y-10361524D01*
X7163572Y-10361524D02*
X7201667Y-10361524D01*
X7201667Y-10361524D02*
X7220715Y-10352000D01*
X7220715Y-10352000D02*
X7230238Y-10332952D01*
X7230238Y-10332952D02*
X7230238Y-10323429D01*
X7230238Y-10323429D02*
X7220715Y-10304381D01*
X7220715Y-10304381D02*
X7201667Y-10294857D01*
X7201667Y-10294857D02*
X7173096Y-10294857D01*
X7173096Y-10294857D02*
X7154048Y-10285333D01*
X7154048Y-10285333D02*
X7144524Y-10266286D01*
X7144524Y-10266286D02*
X7144524Y-10256762D01*
X7144524Y-10256762D02*
X7154048Y-10237714D01*
X7154048Y-10237714D02*
X7173096Y-10228190D01*
X7173096Y-10228190D02*
X7201667Y-10228190D01*
X7201667Y-10228190D02*
X7220715Y-10237714D01*
X7296905Y-10437714D02*
X7306429Y-10428190D01*
X7306429Y-10428190D02*
X7325477Y-10399619D01*
X7325477Y-10399619D02*
X7335000Y-10380571D01*
X7335000Y-10380571D02*
X7344524Y-10352000D01*
X7344524Y-10352000D02*
X7354048Y-10304381D01*
X7354048Y-10304381D02*
X7354048Y-10266286D01*
X7354048Y-10266286D02*
X7344524Y-10218667D01*
X7344524Y-10218667D02*
X7335000Y-10190095D01*
X7335000Y-10190095D02*
X7325477Y-10171048D01*
X7325477Y-10171048D02*
X7306429Y-10142476D01*
X7306429Y-10142476D02*
X7296905Y-10132952D01*
X2335000Y-10489000D02*
X2535000Y-10689000D01*
X2535000Y-10489000D02*
X2335000Y-10689000D01*
X2505711Y-10659711D02*
X2505711Y-10518289D01*
X2364289Y-10518289D01*
X2364289Y-10659711D01*
X2505711Y-10659711D01*
X2763571Y-10481524D02*
X2887381Y-10481524D01*
X2887381Y-10481524D02*
X2820714Y-10557714D01*
X2820714Y-10557714D02*
X2849286Y-10557714D01*
X2849286Y-10557714D02*
X2868333Y-10567238D01*
X2868333Y-10567238D02*
X2877857Y-10576762D01*
X2877857Y-10576762D02*
X2887381Y-10595810D01*
X2887381Y-10595810D02*
X2887381Y-10643429D01*
X2887381Y-10643429D02*
X2877857Y-10662476D01*
X2877857Y-10662476D02*
X2868333Y-10672000D01*
X2868333Y-10672000D02*
X2849286Y-10681524D01*
X2849286Y-10681524D02*
X2792143Y-10681524D01*
X2792143Y-10681524D02*
X2773095Y-10672000D01*
X2773095Y-10672000D02*
X2763571Y-10662476D01*
X2973095Y-10662476D02*
X2982619Y-10672000D01*
X2982619Y-10672000D02*
X2973095Y-10681524D01*
X2973095Y-10681524D02*
X2963571Y-10672000D01*
X2963571Y-10672000D02*
X2973095Y-10662476D01*
X2973095Y-10662476D02*
X2973095Y-10681524D01*
X3163571Y-10481524D02*
X3068333Y-10481524D01*
X3068333Y-10481524D02*
X3058809Y-10576762D01*
X3058809Y-10576762D02*
X3068333Y-10567238D01*
X3068333Y-10567238D02*
X3087381Y-10557714D01*
X3087381Y-10557714D02*
X3135000Y-10557714D01*
X3135000Y-10557714D02*
X3154048Y-10567238D01*
X3154048Y-10567238D02*
X3163571Y-10576762D01*
X3163571Y-10576762D02*
X3173095Y-10595810D01*
X3173095Y-10595810D02*
X3173095Y-10643429D01*
X3173095Y-10643429D02*
X3163571Y-10662476D01*
X3163571Y-10662476D02*
X3154048Y-10672000D01*
X3154048Y-10672000D02*
X3135000Y-10681524D01*
X3135000Y-10681524D02*
X3087381Y-10681524D01*
X3087381Y-10681524D02*
X3068333Y-10672000D01*
X3068333Y-10672000D02*
X3058809Y-10662476D01*
X3296905Y-10481524D02*
X3315952Y-10481524D01*
X3315952Y-10481524D02*
X3335000Y-10491048D01*
X3335000Y-10491048D02*
X3344524Y-10500571D01*
X3344524Y-10500571D02*
X3354048Y-10519619D01*
X3354048Y-10519619D02*
X3363571Y-10557714D01*
X3363571Y-10557714D02*
X3363571Y-10605333D01*
X3363571Y-10605333D02*
X3354048Y-10643429D01*
X3354048Y-10643429D02*
X3344524Y-10662476D01*
X3344524Y-10662476D02*
X3335000Y-10672000D01*
X3335000Y-10672000D02*
X3315952Y-10681524D01*
X3315952Y-10681524D02*
X3296905Y-10681524D01*
X3296905Y-10681524D02*
X3277857Y-10672000D01*
X3277857Y-10672000D02*
X3268333Y-10662476D01*
X3268333Y-10662476D02*
X3258809Y-10643429D01*
X3258809Y-10643429D02*
X3249286Y-10605333D01*
X3249286Y-10605333D02*
X3249286Y-10557714D01*
X3249286Y-10557714D02*
X3258809Y-10519619D01*
X3258809Y-10519619D02*
X3268333Y-10500571D01*
X3268333Y-10500571D02*
X3277857Y-10491048D01*
X3277857Y-10491048D02*
X3296905Y-10481524D01*
X3487381Y-10481524D02*
X3506429Y-10481524D01*
X3506429Y-10481524D02*
X3525476Y-10491048D01*
X3525476Y-10491048D02*
X3535000Y-10500571D01*
X3535000Y-10500571D02*
X3544524Y-10519619D01*
X3544524Y-10519619D02*
X3554048Y-10557714D01*
X3554048Y-10557714D02*
X3554048Y-10605333D01*
X3554048Y-10605333D02*
X3544524Y-10643429D01*
X3544524Y-10643429D02*
X3535000Y-10662476D01*
X3535000Y-10662476D02*
X3525476Y-10672000D01*
X3525476Y-10672000D02*
X3506429Y-10681524D01*
X3506429Y-10681524D02*
X3487381Y-10681524D01*
X3487381Y-10681524D02*
X3468333Y-10672000D01*
X3468333Y-10672000D02*
X3458809Y-10662476D01*
X3458809Y-10662476D02*
X3449286Y-10643429D01*
X3449286Y-10643429D02*
X3439762Y-10605333D01*
X3439762Y-10605333D02*
X3439762Y-10557714D01*
X3439762Y-10557714D02*
X3449286Y-10519619D01*
X3449286Y-10519619D02*
X3458809Y-10500571D01*
X3458809Y-10500571D02*
X3468333Y-10491048D01*
X3468333Y-10491048D02*
X3487381Y-10481524D01*
X3639762Y-10681524D02*
X3639762Y-10548190D01*
X3639762Y-10567238D02*
X3649286Y-10557714D01*
X3649286Y-10557714D02*
X3668333Y-10548190D01*
X3668333Y-10548190D02*
X3696905Y-10548190D01*
X3696905Y-10548190D02*
X3715952Y-10557714D01*
X3715952Y-10557714D02*
X3725476Y-10576762D01*
X3725476Y-10576762D02*
X3725476Y-10681524D01*
X3725476Y-10576762D02*
X3735000Y-10557714D01*
X3735000Y-10557714D02*
X3754048Y-10548190D01*
X3754048Y-10548190D02*
X3782619Y-10548190D01*
X3782619Y-10548190D02*
X3801667Y-10557714D01*
X3801667Y-10557714D02*
X3811190Y-10576762D01*
X3811190Y-10576762D02*
X3811190Y-10681524D01*
X3906429Y-10681524D02*
X3906429Y-10548190D01*
X3906429Y-10567238D02*
X3915952Y-10557714D01*
X3915952Y-10557714D02*
X3935000Y-10548190D01*
X3935000Y-10548190D02*
X3963571Y-10548190D01*
X3963571Y-10548190D02*
X3982619Y-10557714D01*
X3982619Y-10557714D02*
X3992143Y-10576762D01*
X3992143Y-10576762D02*
X3992143Y-10681524D01*
X3992143Y-10576762D02*
X4001667Y-10557714D01*
X4001667Y-10557714D02*
X4020714Y-10548190D01*
X4020714Y-10548190D02*
X4049286Y-10548190D01*
X4049286Y-10548190D02*
X4068333Y-10557714D01*
X4068333Y-10557714D02*
X4077857Y-10576762D01*
X4077857Y-10576762D02*
X4077857Y-10681524D01*
X4468333Y-10472000D02*
X4296905Y-10729143D01*
X4725476Y-10481524D02*
X4744524Y-10481524D01*
X4744524Y-10481524D02*
X4763572Y-10491048D01*
X4763572Y-10491048D02*
X4773095Y-10500571D01*
X4773095Y-10500571D02*
X4782619Y-10519619D01*
X4782619Y-10519619D02*
X4792143Y-10557714D01*
X4792143Y-10557714D02*
X4792143Y-10605333D01*
X4792143Y-10605333D02*
X4782619Y-10643429D01*
X4782619Y-10643429D02*
X4773095Y-10662476D01*
X4773095Y-10662476D02*
X4763572Y-10672000D01*
X4763572Y-10672000D02*
X4744524Y-10681524D01*
X4744524Y-10681524D02*
X4725476Y-10681524D01*
X4725476Y-10681524D02*
X4706429Y-10672000D01*
X4706429Y-10672000D02*
X4696905Y-10662476D01*
X4696905Y-10662476D02*
X4687381Y-10643429D01*
X4687381Y-10643429D02*
X4677857Y-10605333D01*
X4677857Y-10605333D02*
X4677857Y-10557714D01*
X4677857Y-10557714D02*
X4687381Y-10519619D01*
X4687381Y-10519619D02*
X4696905Y-10500571D01*
X4696905Y-10500571D02*
X4706429Y-10491048D01*
X4706429Y-10491048D02*
X4725476Y-10481524D01*
X4877857Y-10662476D02*
X4887381Y-10672000D01*
X4887381Y-10672000D02*
X4877857Y-10681524D01*
X4877857Y-10681524D02*
X4868334Y-10672000D01*
X4868334Y-10672000D02*
X4877857Y-10662476D01*
X4877857Y-10662476D02*
X4877857Y-10681524D01*
X5077857Y-10681524D02*
X4963572Y-10681524D01*
X5020714Y-10681524D02*
X5020714Y-10481524D01*
X5020714Y-10481524D02*
X5001667Y-10510095D01*
X5001667Y-10510095D02*
X4982619Y-10529143D01*
X4982619Y-10529143D02*
X4963572Y-10538667D01*
X5144524Y-10481524D02*
X5268334Y-10481524D01*
X5268334Y-10481524D02*
X5201667Y-10557714D01*
X5201667Y-10557714D02*
X5230238Y-10557714D01*
X5230238Y-10557714D02*
X5249286Y-10567238D01*
X5249286Y-10567238D02*
X5258810Y-10576762D01*
X5258810Y-10576762D02*
X5268334Y-10595810D01*
X5268334Y-10595810D02*
X5268334Y-10643429D01*
X5268334Y-10643429D02*
X5258810Y-10662476D01*
X5258810Y-10662476D02*
X5249286Y-10672000D01*
X5249286Y-10672000D02*
X5230238Y-10681524D01*
X5230238Y-10681524D02*
X5173095Y-10681524D01*
X5173095Y-10681524D02*
X5154048Y-10672000D01*
X5154048Y-10672000D02*
X5144524Y-10662476D01*
X5335000Y-10481524D02*
X5468334Y-10481524D01*
X5468334Y-10481524D02*
X5382619Y-10681524D01*
X5573095Y-10567238D02*
X5554048Y-10557714D01*
X5554048Y-10557714D02*
X5544524Y-10548190D01*
X5544524Y-10548190D02*
X5535000Y-10529143D01*
X5535000Y-10529143D02*
X5535000Y-10519619D01*
X5535000Y-10519619D02*
X5544524Y-10500571D01*
X5544524Y-10500571D02*
X5554048Y-10491048D01*
X5554048Y-10491048D02*
X5573095Y-10481524D01*
X5573095Y-10481524D02*
X5611191Y-10481524D01*
X5611191Y-10481524D02*
X5630238Y-10491048D01*
X5630238Y-10491048D02*
X5639762Y-10500571D01*
X5639762Y-10500571D02*
X5649286Y-10519619D01*
X5649286Y-10519619D02*
X5649286Y-10529143D01*
X5649286Y-10529143D02*
X5639762Y-10548190D01*
X5639762Y-10548190D02*
X5630238Y-10557714D01*
X5630238Y-10557714D02*
X5611191Y-10567238D01*
X5611191Y-10567238D02*
X5573095Y-10567238D01*
X5573095Y-10567238D02*
X5554048Y-10576762D01*
X5554048Y-10576762D02*
X5544524Y-10586286D01*
X5544524Y-10586286D02*
X5535000Y-10605333D01*
X5535000Y-10605333D02*
X5535000Y-10643429D01*
X5535000Y-10643429D02*
X5544524Y-10662476D01*
X5544524Y-10662476D02*
X5554048Y-10672000D01*
X5554048Y-10672000D02*
X5573095Y-10681524D01*
X5573095Y-10681524D02*
X5611191Y-10681524D01*
X5611191Y-10681524D02*
X5630238Y-10672000D01*
X5630238Y-10672000D02*
X5639762Y-10662476D01*
X5639762Y-10662476D02*
X5649286Y-10643429D01*
X5649286Y-10643429D02*
X5649286Y-10605333D01*
X5649286Y-10605333D02*
X5639762Y-10586286D01*
X5639762Y-10586286D02*
X5630238Y-10576762D01*
X5630238Y-10576762D02*
X5611191Y-10567238D01*
X5725476Y-10481524D02*
X5725476Y-10519619D01*
X5801667Y-10481524D02*
X5801667Y-10519619D01*
X6096905Y-10757714D02*
X6087381Y-10748190D01*
X6087381Y-10748190D02*
X6068334Y-10719619D01*
X6068334Y-10719619D02*
X6058810Y-10700571D01*
X6058810Y-10700571D02*
X6049286Y-10672000D01*
X6049286Y-10672000D02*
X6039762Y-10624381D01*
X6039762Y-10624381D02*
X6039762Y-10586286D01*
X6039762Y-10586286D02*
X6049286Y-10538667D01*
X6049286Y-10538667D02*
X6058810Y-10510095D01*
X6058810Y-10510095D02*
X6068334Y-10491048D01*
X6068334Y-10491048D02*
X6087381Y-10462476D01*
X6087381Y-10462476D02*
X6096905Y-10452952D01*
X6163572Y-10500571D02*
X6173095Y-10491048D01*
X6173095Y-10491048D02*
X6192143Y-10481524D01*
X6192143Y-10481524D02*
X6239762Y-10481524D01*
X6239762Y-10481524D02*
X6258810Y-10491048D01*
X6258810Y-10491048D02*
X6268334Y-10500571D01*
X6268334Y-10500571D02*
X6277857Y-10519619D01*
X6277857Y-10519619D02*
X6277857Y-10538667D01*
X6277857Y-10538667D02*
X6268334Y-10567238D01*
X6268334Y-10567238D02*
X6154048Y-10681524D01*
X6154048Y-10681524D02*
X6277857Y-10681524D01*
X6515953Y-10681524D02*
X6515953Y-10481524D01*
X6601667Y-10681524D02*
X6601667Y-10576762D01*
X6601667Y-10576762D02*
X6592143Y-10557714D01*
X6592143Y-10557714D02*
X6573096Y-10548190D01*
X6573096Y-10548190D02*
X6544524Y-10548190D01*
X6544524Y-10548190D02*
X6525476Y-10557714D01*
X6525476Y-10557714D02*
X6515953Y-10567238D01*
X6725476Y-10681524D02*
X6706429Y-10672000D01*
X6706429Y-10672000D02*
X6696905Y-10662476D01*
X6696905Y-10662476D02*
X6687381Y-10643429D01*
X6687381Y-10643429D02*
X6687381Y-10586286D01*
X6687381Y-10586286D02*
X6696905Y-10567238D01*
X6696905Y-10567238D02*
X6706429Y-10557714D01*
X6706429Y-10557714D02*
X6725476Y-10548190D01*
X6725476Y-10548190D02*
X6754048Y-10548190D01*
X6754048Y-10548190D02*
X6773096Y-10557714D01*
X6773096Y-10557714D02*
X6782619Y-10567238D01*
X6782619Y-10567238D02*
X6792143Y-10586286D01*
X6792143Y-10586286D02*
X6792143Y-10643429D01*
X6792143Y-10643429D02*
X6782619Y-10662476D01*
X6782619Y-10662476D02*
X6773096Y-10672000D01*
X6773096Y-10672000D02*
X6754048Y-10681524D01*
X6754048Y-10681524D02*
X6725476Y-10681524D01*
X6906429Y-10681524D02*
X6887381Y-10672000D01*
X6887381Y-10672000D02*
X6877857Y-10652952D01*
X6877857Y-10652952D02*
X6877857Y-10481524D01*
X7058810Y-10672000D02*
X7039762Y-10681524D01*
X7039762Y-10681524D02*
X7001667Y-10681524D01*
X7001667Y-10681524D02*
X6982619Y-10672000D01*
X6982619Y-10672000D02*
X6973096Y-10652952D01*
X6973096Y-10652952D02*
X6973096Y-10576762D01*
X6973096Y-10576762D02*
X6982619Y-10557714D01*
X6982619Y-10557714D02*
X7001667Y-10548190D01*
X7001667Y-10548190D02*
X7039762Y-10548190D01*
X7039762Y-10548190D02*
X7058810Y-10557714D01*
X7058810Y-10557714D02*
X7068334Y-10576762D01*
X7068334Y-10576762D02*
X7068334Y-10595810D01*
X7068334Y-10595810D02*
X6973096Y-10614857D01*
X7144524Y-10672000D02*
X7163572Y-10681524D01*
X7163572Y-10681524D02*
X7201667Y-10681524D01*
X7201667Y-10681524D02*
X7220715Y-10672000D01*
X7220715Y-10672000D02*
X7230238Y-10652952D01*
X7230238Y-10652952D02*
X7230238Y-10643429D01*
X7230238Y-10643429D02*
X7220715Y-10624381D01*
X7220715Y-10624381D02*
X7201667Y-10614857D01*
X7201667Y-10614857D02*
X7173096Y-10614857D01*
X7173096Y-10614857D02*
X7154048Y-10605333D01*
X7154048Y-10605333D02*
X7144524Y-10586286D01*
X7144524Y-10586286D02*
X7144524Y-10576762D01*
X7144524Y-10576762D02*
X7154048Y-10557714D01*
X7154048Y-10557714D02*
X7173096Y-10548190D01*
X7173096Y-10548190D02*
X7201667Y-10548190D01*
X7201667Y-10548190D02*
X7220715Y-10557714D01*
X7296905Y-10757714D02*
X7306429Y-10748190D01*
X7306429Y-10748190D02*
X7325477Y-10719619D01*
X7325477Y-10719619D02*
X7335000Y-10700571D01*
X7335000Y-10700571D02*
X7344524Y-10672000D01*
X7344524Y-10672000D02*
X7354048Y-10624381D01*
X7354048Y-10624381D02*
X7354048Y-10586286D01*
X7354048Y-10586286D02*
X7344524Y-10538667D01*
X7344524Y-10538667D02*
X7335000Y-10510095D01*
X7335000Y-10510095D02*
X7325477Y-10491048D01*
X7325477Y-10491048D02*
X7306429Y-10462476D01*
X7306429Y-10462476D02*
X7296905Y-10452952D01*
M02*
